<svg id="my-svg" width="100%" xmlns="http://www.w3.org/2000/svg" xmlns:xlink="http://www.w3.org/1999/xlink" class="classDiagram" style="max-width: 1054.72px; background-color: white;" viewBox="0 0 1054.71875 790" role="graphics-document document" aria-roledescription="class"><style>#my-svg{font-family:"trebuchet ms",verdana,arial,sans-serif;font-size:16px;fill:#333;}@keyframes edge-animation-frame{from{stroke-dashoffset:0;}}@keyframes dash{to{stroke-dashoffset:0;}}#my-svg .edge-animation-slow{stroke-dasharray:9,5!important;stroke-dashoffset:900;animation:dash 50s linear infinite;stroke-linecap:round;}#my-svg .edge-animation-fast{stroke-dasharray:9,5!important;stroke-dashoffset:900;animation:dash 20s linear infinite;stroke-linecap:round;}#my-svg .error-icon{fill:#552222;}#my-svg .error-text{fill:#552222;stroke:#552222;}#my-svg .edge-thickness-normal{stroke-width:1px;}#my-svg .edge-thickness-thick{stroke-width:3.5px;}#my-svg .edge-pattern-solid{stroke-dasharray:0;}#my-svg .edge-thickness-invisible{stroke-width:0;fill:none;}#my-svg .edge-pattern-dashed{stroke-dasharray:3;}#my-svg .edge-pattern-dotted{stroke-dasharray:2;}#my-svg .marker{fill:#333333;stroke:#333333;}#my-svg .marker.cross{stroke:#333333;}#my-svg svg{font-family:"trebuchet ms",verdana,arial,sans-serif;font-size:16px;}#my-svg p{margin:0;}#my-svg g.classGroup text{fill:#9370DB;stroke:none;font-family:"trebuchet ms",verdana,arial,sans-serif;font-size:10px;}#my-svg g.classGroup text .title{font-weight:bolder;}#my-svg .cluster-label text{fill:#333;}#my-svg .cluster-label span{color:#333;}#my-svg .cluster-label span p{background-color:transparent;}#my-svg .cluster rect{fill:#ffffde;stroke:#aaaa33;stroke-width:1px;}#my-svg .cluster text{fill:#333;}#my-svg .cluster span{color:#333;}#my-svg .nodeLabel,#my-svg .edgeLabel{color:#131300;}#my-svg .noteLabel .nodeLabel,#my-svg .noteLabel .edgeLabel{color:black;}#my-svg .edgeLabel .label rect{fill:#ECECFF;}#my-svg .label text{fill:#131300;}#my-svg .labelBkg{background:#ECECFF;}#my-svg .edgeLabel .label span{background:#ECECFF;}#my-svg .classTitle{font-weight:bolder;}#my-svg .node rect,#my-svg .node circle,#my-svg .node ellipse,#my-svg .node polygon,#my-svg .node path{fill:#ECECFF;stroke:#9370DB;stroke-width:1;}#my-svg .divider{stroke:#9370DB;stroke-width:1;}#my-svg g.clickable{cursor:pointer;}#my-svg g.classGroup rect{fill:#ECECFF;stroke:#9370DB;}#my-svg g.classGroup line{stroke:#9370DB;stroke-width:1;}#my-svg .classLabel .box{stroke:none;stroke-width:0;fill:#ECECFF;opacity:0.5;}#my-svg .classLabel .label{fill:#9370DB;font-size:10px;}#my-svg .relation{stroke:#333333;stroke-width:1;fill:none;}#my-svg .dashed-line{stroke-dasharray:3;}#my-svg .dotted-line{stroke-dasharray:1 2;}#my-svg [id$="-compositionStart"],#my-svg .composition{fill:#333333!important;stroke:#333333!important;stroke-width:1;}#my-svg [id$="-compositionEnd"],#my-svg .composition{fill:#333333!important;stroke:#333333!important;stroke-width:1;}#my-svg [id$="-dependencyStart"],#my-svg .dependency{fill:#333333!important;stroke:#333333!important;stroke-width:1;}#my-svg [id$="-dependencyEnd"],#my-svg .dependency{fill:#333333!important;stroke:#333333!important;stroke-width:1;}#my-svg [id$="-extensionStart"],#my-svg .extension{fill:transparent!important;stroke:#333333!important;stroke-width:1;}#my-svg [id$="-extensionEnd"],#my-svg .extension{fill:transparent!important;stroke:#333333!important;stroke-width:1;}#my-svg [id$="-aggregationStart"],#my-svg .aggregation{fill:transparent!important;stroke:#333333!important;stroke-width:1;}#my-svg [id$="-aggregationEnd"],#my-svg .aggregation{fill:transparent!important;stroke:#333333!important;stroke-width:1;}#my-svg [id$="-lollipopStart"],#my-svg .lollipop{fill:#ECECFF!important;stroke:#333333!important;stroke-width:1;}#my-svg [id$="-lollipopEnd"],#my-svg .lollipop{fill:#ECECFF!important;stroke:#333333!important;stroke-width:1;}#my-svg .edgeTerminals{font-size:11px;line-height:initial;}#my-svg .classTitleText{text-anchor:middle;font-size:18px;fill:#333;}#my-svg .edgeLabel[data-look="neo"]{background-color:rgba(232,232,232, 0.8);text-align:center;}#my-svg .edgeLabel[data-look="neo"] p{background-color:rgba(232,232,232, 0.8);}#my-svg .edgeLabel[data-look="neo"] rect{opacity:0.5;background-color:rgba(232,232,232, 0.8);fill:rgba(232,232,232, 0.8);}#my-svg .label-icon{display:inline-block;height:1em;overflow:visible;vertical-align:-0.125em;}#my-svg .node .label-icon path{fill:currentColor;stroke:revert;stroke-width:revert;}#my-svg .node .neo-node{stroke:#9370DB;}#my-svg [data-look="neo"].node rect,#my-svg [data-look="neo"].cluster rect,#my-svg [data-look="neo"].node polygon{stroke:#9370DB;filter:drop-shadow(1px 2px 2px rgba(185, 185, 185, 1));}#my-svg [data-look="neo"].node path{stroke:#9370DB;stroke-width:1px;}#my-svg [data-look="neo"].node .outer-path{filter:drop-shadow(1px 2px 2px rgba(185, 185, 185, 1));}#my-svg [data-look="neo"].node .neo-line path{stroke:#9370DB;filter:none;}#my-svg [data-look="neo"].node circle{stroke:#9370DB;filter:drop-shadow(1px 2px 2px rgba(185, 185, 185, 1));}#my-svg [data-look="neo"].node circle .state-start{fill:#000000;}#my-svg [data-look="neo"].icon-shape .icon{fill:#9370DB;filter:drop-shadow(1px 2px 2px rgba(185, 185, 185, 1));}#my-svg [data-look="neo"].icon-shape .icon-neo path{stroke:#9370DB;filter:drop-shadow(1px 2px 2px rgba(185, 185, 185, 1));}#my-svg :root{--mermaid-font-family:"trebuchet ms",verdana,arial,sans-serif;}</style><g><defs><marker id="my-svg_class-aggregationStart" class="marker aggregation class" refX="18" refY="7" markerWidth="190" markerHeight="240" orient="auto"><path d="M 18,7 L9,13 L1,7 L9,1 Z"/></marker></defs><defs><marker id="my-svg_class-aggregationEnd" class="marker aggregation class" refX="1" refY="7" markerWidth="20" markerHeight="28" orient="auto"><path d="M 18,7 L9,13 L1,7 L9,1 Z"/></marker></defs><defs><marker id="my-svg_class-aggregationStart-margin" class="marker aggregation class" refX="15" refY="7" markerWidth="190" markerHeight="240" orient="auto" markerUnits="userSpaceOnUse"><path d="M 18,7 L9,13 L1,7 L9,1 Z" style="stroke-width: 2;"/></marker></defs><defs><marker id="my-svg_class-aggregationEnd-margin" class="marker aggregation class" refX="1" refY="7" markerWidth="20" markerHeight="28" orient="auto" markerUnits="userSpaceOnUse"><path d="M 18,7 L9,13 L1,7 L9,1 Z" style="stroke-width: 2;"/></marker></defs><defs><marker id="my-svg_class-extensionStart" class="marker extension class" refX="18" refY="7" markerWidth="190" markerHeight="240" orient="auto" markerUnits="userSpaceOnUse"><path d="M 1,7 L18,13 V 1 Z"/></marker></defs><defs><marker id="my-svg_class-extensionEnd" class="marker extension class" refX="1" refY="7" markerWidth="20" markerHeight="28" orient="auto"><path d="M 1,1 V 13 L18,7 Z"/></marker></defs><marker id="my-svg_class-extensionStart-margin" class="marker extension class" refX="18" refY="7" markerWidth="20" markerHeight="28" orient="auto" markerUnits="userSpaceOnUse" viewBox="0 0 20 14"><polygon points="10,7 18,13 18,1" style="stroke-width: 2; stroke-dasharray: 0;"/></marker><defs><marker id="my-svg_class-extensionEnd-margin" class="marker extension class" refX="9" refY="7" markerWidth="20" markerHeight="28" orient="auto" markerUnits="userSpaceOnUse" viewBox="0 0 20 14"><polygon points="10,1 10,13 18,7" style="stroke-width: 2; stroke-dasharray: 0;"/></marker></defs><defs><marker id="my-svg_class-compositionStart" class="marker composition class" refX="18" refY="7" markerWidth="190" markerHeight="240" orient="auto"><path d="M 18,7 L9,13 L1,7 L9,1 Z"/></marker></defs><defs><marker id="my-svg_class-compositionEnd" class="marker composition class" refX="1" refY="7" markerWidth="20" markerHeight="28" orient="auto"><path d="M 18,7 L9,13 L1,7 L9,1 Z"/></marker></defs><defs><marker id="my-svg_class-compositionStart-margin" class="marker composition class" refX="15" refY="7" markerWidth="190" markerHeight="240" orient="auto" markerUnits="userSpaceOnUse"><path viewBox="0 0 15 15" d="M 18,7 L9,13 L1,7 L9,1 Z" style="stroke-width: 0;"/></marker></defs><defs><marker id="my-svg_class-compositionEnd-margin" class="marker composition class" refX="3.5" refY="7" markerWidth="20" markerHeight="28" orient="auto" markerUnits="userSpaceOnUse"><path d="M 18,7 L9,13 L1,7 L9,1 Z" style="stroke-width: 0;"/></marker></defs><defs><marker id="my-svg_class-dependencyStart" class="marker dependency class" refX="6" refY="7" markerWidth="190" markerHeight="240" orient="auto"><path d="M 5,7 L9,13 L1,7 L9,1 Z"/></marker></defs><defs><marker id="my-svg_class-dependencyEnd" class="marker dependency class" refX="13" refY="7" markerWidth="20" markerHeight="28" orient="auto"><path d="M 18,7 L9,13 L14,7 L9,1 Z"/></marker></defs><defs><marker id="my-svg_class-dependencyStart-margin" class="marker dependency class" refX="4" refY="7" markerWidth="190" markerHeight="240" orient="auto" markerUnits="userSpaceOnUse"><path d="M 5,7 L9,13 L1,7 L9,1 Z" style="stroke-width: 0;"/></marker></defs><defs><marker id="my-svg_class-dependencyEnd-margin" class="marker dependency class" refX="16" refY="7" markerWidth="20" markerHeight="28" orient="auto" markerUnits="userSpaceOnUse"><path d="M 18,7 L9,13 L14,7 L9,1 Z" style="stroke-width: 0;"/></marker></defs><defs><marker id="my-svg_class-lollipopStart" class="marker lollipop class" refX="13" refY="7" markerWidth="190" markerHeight="240" orient="auto"><circle fill="transparent" cx="7" cy="7" r="6"/></marker></defs><defs><marker id="my-svg_class-lollipopEnd" class="marker lollipop class" refX="1" refY="7" markerWidth="190" markerHeight="240" orient="auto"><circle fill="transparent" cx="7" cy="7" r="6"/></marker></defs><defs><marker id="my-svg_class-lollipopStart-margin" class="marker lollipop class" refX="13" refY="7" markerWidth="190" markerHeight="240" orient="auto" markerUnits="userSpaceOnUse"><circle fill="transparent" cx="7" cy="7" r="6" stroke-width="2"/></marker></defs><defs><marker id="my-svg_class-lollipopEnd-margin" class="marker lollipop class" refX="1" refY="7" markerWidth="190" markerHeight="240" orient="auto" markerUnits="userSpaceOnUse"><circle fill="transparent" cx="7" cy="7" r="6" stroke-width="2"/></marker></defs><g class="root"><g class="clusters"/><g class="edgePaths"><path d="M306.894,623.877L274.329,632.064C241.765,640.251,176.636,656.626,144.072,668.979C111.508,681.333,111.508,689.667,111.508,693.833L111.508,698" id="my-svg-id_OverdraftAlertListener_OverdraftEventRecorder_1" class="edge-thickness-normal edge-pattern-dashed relation" style=";;;" data-edge="true" data-et="edge" data-id="id_OverdraftAlertListener_OverdraftEventRecorder_1" data-points="W3sieCI6MzIzLjYyMzA0Njg3NSwieSI6NjE5LjY3MDk1NTEzMzE0NzF9LHsieCI6MTExLjUwNzgxMjUsInkiOjY3M30seyJ4IjoxMTEuNTA3ODEyNSwieSI6Njk4fV0=" data-look="classic" marker-start="url(#my-svg_class-extensionStart)"/><path d="M396.717,658.43L393.518,660.858C390.319,663.287,383.921,668.143,380.722,674.738C377.523,681.333,377.523,689.667,377.523,693.833L377.523,698" id="my-svg-id_OverdraftAlertListener_CustomerOverdraftNotifier_2" class="edge-thickness-normal edge-pattern-dashed relation" style=";;;" data-edge="true" data-et="edge" data-id="id_OverdraftAlertListener_CustomerOverdraftNotifier_2" data-points="W3sieCI6NDEwLjQ1NjU0Mjk2ODc1LCJ5Ijo2NDh9LHsieCI6Mzc3LjUyMzQzNzUsInkiOjY3M30seyJ4IjozNzcuNTIzNDM3NSwieSI6Njk4fV0=" data-look="classic" marker-start="url(#my-svg_class-extensionStart)"/><path d="M615.549,658.838L618.472,661.198C621.395,663.558,627.24,668.279,630.163,674.806C633.086,681.333,633.086,689.667,633.086,693.833L633.086,698" id="my-svg-id_OverdraftAlertListener_OverdraftAuditLogger_3" class="edge-thickness-normal edge-pattern-dashed relation" style=";;;" data-edge="true" data-et="edge" data-id="id_OverdraftAlertListener_OverdraftAuditLogger_3" data-points="W3sieCI6NjAyLjEyODQxNzk2ODc1LCJ5Ijo2NDh9LHsieCI6NjMzLjA4NTkzNzUsInkiOjY3M30seyJ4Ijo2MzMuMDg1OTM3NSwieSI6Njk4fV0=" data-look="classic" marker-start="url(#my-svg_class-extensionStart)"/><path d="M711.096,646.543L723.198,650.952C735.301,655.362,759.505,664.181,779.861,672.757C800.217,681.333,816.724,689.667,824.978,693.833L833.232,698" id="my-svg-id_OverdraftAlertListener_AdminOverdraftAlertDispatcher_4" class="edge-thickness-normal edge-pattern-dashed relation" style=";;;" data-edge="true" data-et="edge" data-id="id_OverdraftAlertListener_AdminOverdraftAlertDispatcher_4" data-points="W3sieCI6Njk0Ljg4ODY3MTg3NSwieSI6NjQwLjYzNzM0Njk5Njg2ODh9LHsieCI6NzgzLjcwODk4NDM3NSwieSI6NjczfSx7IngiOjgzMy4yMzE2MzQ3OTQ3NzYxLCJ5Ijo2OTh9XQ==" data-look="classic" marker-start="url(#my-svg_class-extensionStart)"/><path d="M509.256,448L509.256,452.167C509.256,456.333,509.256,464.667,509.256,472C509.256,479.333,509.256,485.667,509.256,488.833L509.256,492" id="my-svg-id_OverdraftNotificationService_OverdraftAlertListener_5" class="edge-thickness-normal edge-pattern-solid relation" style=";;;" data-edge="true" data-et="edge" data-id="id_OverdraftNotificationService_OverdraftAlertListener_5" data-points="W3sieCI6NTA5LjI1NTg1OTM3NSwieSI6NDQ4fSx7IngiOjUwOS4yNTU4NTkzNzUsInkiOjQ3M30seyJ4Ijo1MDkuMjU1ODU5Mzc1LCJ5Ijo0OTh9XQ==" data-look="classic" marker-end="url(#my-svg_class-dependencyEnd)"/><path d="M456.289,134L456.289,138.167C456.289,142.333,456.289,150.667,457.375,158.052C458.461,165.438,460.633,171.877,461.719,175.096L462.805,178.315" id="my-svg-id_OverdraftMonitor_OverdraftNotificationService_6" class="edge-thickness-normal edge-pattern-solid relation" style=";;;" data-edge="true" data-et="edge" data-id="id_OverdraftMonitor_OverdraftNotificationService_6" data-points="W3sieCI6NDU2LjI4OTA2MjUsInkiOjEzNH0seyJ4Ijo0NTYuMjg5MDYyNSwieSI6MTU5fSx7IngiOjQ2NC43MjMyNjU4MjQwNDQ2LCJ5IjoxODR9XQ==" data-look="classic" marker-end="url(#my-svg_class-dependencyEnd)"/><path d="M921.202,113L922.074,120.667C922.945,128.333,924.687,143.667,925.558,177.5C926.43,211.333,926.43,263.667,926.43,316C926.43,368.333,926.43,420.667,926.43,463.5C926.43,506.333,926.43,539.667,926.43,573C926.43,606.333,926.43,639.667,925.955,659.511C925.481,679.355,924.533,685.71,924.058,688.888L923.584,692.066" id="my-svg-id_OverdraftAlertView_AdminOverdraftAlertDispatcher_7" class="edge-thickness-normal edge-pattern-solid relation" style=";;;" data-edge="true" data-et="edge" data-id="id_OverdraftAlertView_AdminOverdraftAlertDispatcher_7" data-points="W3sieCI6OTIxLjIwMjQxNDc3MjcyNzMsInkiOjExM30seyJ4Ijo5MjYuNDI5Njg3NSwieSI6MTU5fSx7IngiOjkyNi40Mjk2ODc1LCJ5IjozMTZ9LHsieCI6OTI2LjQyOTY4NzUsInkiOjQ3M30seyJ4Ijo5MjYuNDI5Njg3NSwieSI6NTczfSx7IngiOjkyNi40Mjk2ODc1LCJ5Ijo2NzN9LHsieCI6OTIyLjY5ODM0NDIxNjQxNzksInkiOjY5OH1d" data-look="classic" marker-end="url(#my-svg_class-dependencyEnd)"/><path d="M848.313,113L835.879,120.667C823.445,128.333,798.577,143.667,779.984,154.99C761.392,166.312,749.075,173.625,742.916,177.281L736.758,180.937" id="my-svg-id_OverdraftAlertView_OverdraftNotificationService_8" class="edge-thickness-normal edge-pattern-solid relation" style=";;;" data-edge="true" data-et="edge" data-id="id_OverdraftAlertView_OverdraftNotificationService_8" data-points="W3sieCI6ODQ4LjMxMjk4ODI4MTI1LCJ5IjoxMTN9LHsieCI6NzczLjcwODk4NDM3NSwieSI6MTU5fSx7IngiOjczMS41OTg2MTQxNTIwNywieSI6MTg0fV0=" data-look="classic" marker-end="url(#my-svg_class-dependencyEnd)"/></g><g class="edgeLabels"><g class="edgeLabel"><g class="label" data-id="id_OverdraftAlertListener_OverdraftEventRecorder_1" transform="translate(0, 0)"><foreignObject width="0" height="0"><div xmlns="http://www.w3.org/1999/xhtml" class="labelBkg" style="display: table-cell; white-space: nowrap; line-height: 1.5; max-width: 200px; text-align: center;"><span class="edgeLabel"></span></div></foreignObject></g></g><g class="edgeLabel"><g class="label" data-id="id_OverdraftAlertListener_CustomerOverdraftNotifier_2" transform="translate(0, 0)"><foreignObject width="0" height="0"><div xmlns="http://www.w3.org/1999/xhtml" class="labelBkg" style="display: table-cell; white-space: nowrap; line-height: 1.5; max-width: 200px; text-align: center;"><span class="edgeLabel"></span></div></foreignObject></g></g><g class="edgeLabel"><g class="label" data-id="id_OverdraftAlertListener_OverdraftAuditLogger_3" transform="translate(0, 0)"><foreignObject width="0" height="0"><div xmlns="http://www.w3.org/1999/xhtml" class="labelBkg" style="display: table-cell; white-space: nowrap; line-height: 1.5; max-width: 200px; text-align: center;"><span class="edgeLabel"></span></div></foreignObject></g></g><g class="edgeLabel"><g class="label" data-id="id_OverdraftAlertListener_AdminOverdraftAlertDispatcher_4" transform="translate(0, 0)"><foreignObject width="0" height="0"><div xmlns="http://www.w3.org/1999/xhtml" class="labelBkg" style="display: table-cell; white-space: nowrap; line-height: 1.5; max-width: 200px; text-align: center;"><span class="edgeLabel"></span></div></foreignObject></g></g><g class="edgeLabel"><g class="label" data-id="id_OverdraftNotificationService_OverdraftAlertListener_5" transform="translate(0, 0)"><foreignObject width="0" height="0"><div xmlns="http://www.w3.org/1999/xhtml" class="labelBkg" style="display: table-cell; white-space: nowrap; line-height: 1.5; max-width: 200px; text-align: center;"><span class="edgeLabel"></span></div></foreignObject></g></g><g class="edgeLabel"><g class="label" data-id="id_OverdraftMonitor_OverdraftNotificationService_6" transform="translate(0, 0)"><foreignObject width="0" height="0"><div xmlns="http://www.w3.org/1999/xhtml" class="labelBkg" style="display: table-cell; white-space: nowrap; line-height: 1.5; max-width: 200px; text-align: center;"><span class="edgeLabel"></span></div></foreignObject></g></g><g class="edgeLabel"><g class="label" data-id="id_OverdraftAlertView_AdminOverdraftAlertDispatcher_7" transform="translate(0, 0)"><foreignObject width="0" height="0"><div xmlns="http://www.w3.org/1999/xhtml" class="labelBkg" style="display: table-cell; white-space: nowrap; line-height: 1.5; max-width: 200px; text-align: center;"><span class="edgeLabel"></span></div></foreignObject></g></g><g class="edgeLabel"><g class="label" data-id="id_OverdraftAlertView_OverdraftNotificationService_8" transform="translate(0, 0)"><foreignObject width="0" height="0"><div xmlns="http://www.w3.org/1999/xhtml" class="labelBkg" style="display: table-cell; white-space: nowrap; line-height: 1.5; max-width: 200px; text-align: center;"><span class="edgeLabel"></span></div></foreignObject></g></g></g><g class="nodes"><g class="node default" id="my-svg-classId-OverdraftNotificationService-0" data-look="classic" transform="translate(509.255859375, 316)"><g class="basic label-container outer-path"><path d="M-250.44140625 -132 L250.44140625 -132 L250.44140625 132 L-250.44140625 132" stroke="none" stroke-width="0" fill="#ECECFF" style=""/><path d="M-250.44140625 -132 C-140.2006635804562 -132, -29.95992091091236 -132, 250.44140625 -132 M-250.44140625 -132 C-104.58971441246217 -132, 41.261977425075656 -132, 250.44140625 -132 M250.44140625 -132 C250.44140625 -72.72665915748246, 250.44140625 -13.453318314964903, 250.44140625 132 M250.44140625 -132 C250.44140625 -36.36729225626837, 250.44140625 59.26541548746326, 250.44140625 132 M250.44140625 132 C147.15841441623417 132, 43.8754225824683 132, -250.44140625 132 M250.44140625 132 C111.27917023651509 132, -27.88306577696983 132, -250.44140625 132 M-250.44140625 132 C-250.44140625 51.89970615448766, -250.44140625 -28.20058769102468, -250.44140625 -132 M-250.44140625 132 C-250.44140625 29.333225102033623, -250.44140625 -73.33354979593275, -250.44140625 -132" stroke="#9370DB" stroke-width="1.3" fill="none" stroke-dasharray="0 0" style=""/></g><g class="annotation-group text" transform="translate(0, -108)"/><g class="label-group text" transform="translate(-107.6484375, -108)"><g class="label" style="font-weight: bolder" transform="translate(0,-12)"><foreignObject width="215.296875" height="24"><div xmlns="http://www.w3.org/1999/xhtml" style="display: table-cell; white-space: nowrap; line-height: 1.5; max-width: 237px; text-align: center;"><span class="nodeLabel markdown-node-label" style=""><p>OverdraftNotificationService</p></span></div></foreignObject></g></g><g class="members-group text" transform="translate(-238.44140625, -60)"><g class="label" style="" transform="translate(0,-12)"><foreignObject width="329.25" height="24"><div xmlns="http://www.w3.org/1999/xhtml" style="display: table-cell; white-space: nowrap; line-height: 1.5; max-width: 368px; text-align: center;"><span class="nodeLabel markdown-node-label" style=""><p>-static OverdraftNotificationService INSTANCE</p></span></div></foreignObject></g><g class="label" style="" transform="translate(0,12)"><foreignObject width="283.84375" height="24"><div xmlns="http://www.w3.org/1999/xhtml" style="display: table-cell; white-space: nowrap; line-height: 1.5; max-width: 354px; text-align: center;"><span class="nodeLabel markdown-node-label" style=""><p>-List&lt;OverdraftAlertListener&gt; observers</p></span></div></foreignObject></g></g><g class="methods-group text" transform="translate(-238.44140625, 12)"><g class="label" style="" transform="translate(0,-12)"><foreignObject width="223.421875" height="24"><div xmlns="http://www.w3.org/1999/xhtml" style="display: table-cell; white-space: nowrap; line-height: 1.5; max-width: 259px; text-align: center;"><span class="nodeLabel markdown-node-label" style=""><p>-OverdraftNotificationService()</p></span></div></foreignObject></g><g class="label" style="" transform="translate(0,12)"><foreignObject width="369.234375" height="24"><div xmlns="http://www.w3.org/1999/xhtml" style="display: table-cell; white-space: nowrap; line-height: 1.5; max-width: 386px; text-align: center;"><span class="nodeLabel markdown-node-label" style=""><p>+static getInstance() : OverdraftNotificationService</p></span></div></foreignObject></g><g class="label" style="" transform="translate(0,36)"><foreignObject width="295.21875" height="24"><div xmlns="http://www.w3.org/1999/xhtml" style="display: table-cell; white-space: nowrap; line-height: 1.5; max-width: 325px; text-align: center;"><span class="nodeLabel markdown-node-label" style=""><p>+subscribe(OverdraftAlertListener) : void</p></span></div></foreignObject></g><g class="label" style="" transform="translate(0,60)"><foreignObject width="312.703125" height="24"><div xmlns="http://www.w3.org/1999/xhtml" style="display: table-cell; white-space: nowrap; line-height: 1.5; max-width: 341px; text-align: center;"><span class="nodeLabel markdown-node-label" style=""><p>+unsubscribe(OverdraftAlertListener) : void</p></span></div></foreignObject></g><g class="label" style="" transform="translate(0,84)"><foreignObject width="226.203125" height="24"><div xmlns="http://www.w3.org/1999/xhtml" style="display: table-cell; white-space: nowrap; line-height: 1.5; max-width: 264px; text-align: center;"><span class="nodeLabel markdown-node-label" style=""><p>+publish(OverdraftEvent) : void</p></span></div></foreignObject></g></g><g class="divider" style=""><path d="M-250.44140625 -84 C-124.00594611957905 -83.99974757476804, 2.429514010841899 -83.99949514953607, 250.44140625 -83.999 M-250.44140625 -84 C-122.11878172262064 -83.99974380709155, 6.203842804758722 -83.9994876141831, 250.44140625 -83.999" stroke="#9370DB" stroke-width="1.3" fill="none" stroke-dasharray="0 0" style=""/></g><g class="divider" style=""><path d="M-250.44140625 -12 C-96.25454750807796 -11.999692169795221, 57.932311233844075 -11.999384339590444, 250.44140625 -11.999 M-250.44140625 -12 C-104.89020565518985 -11.999709410670595, 40.66099493962031 -11.999418821341191, 250.44140625 -11.999" stroke="#9370DB" stroke-width="1.3" fill="none" stroke-dasharray="0 0" style=""/></g></g><g class="node default" id="my-svg-classId-OverdraftAlertListener-1" data-look="classic" transform="translate(509.255859375, 573)"><g class="basic label-container outer-path"><path d="M-185.6328125 -75 L185.6328125 -75 L185.6328125 75 L-185.6328125 75" stroke="none" stroke-width="0" fill="#ECECFF" style=""/><path d="M-185.6328125 -75 C-38.086422697126864 -75, 109.45996710574627 -75, 185.6328125 -75 M-185.6328125 -75 C-44.0247358641997 -75, 97.5833407716006 -75, 185.6328125 -75 M185.6328125 -75 C185.6328125 -43.6810108469725, 185.6328125 -12.362021693944989, 185.6328125 75 M185.6328125 -75 C185.6328125 -37.00806223147405, 185.6328125 0.983875537051901, 185.6328125 75 M185.6328125 75 C60.44378899328926 75, -64.74523451342148 75, -185.6328125 75 M185.6328125 75 C89.25167927769644 75, -7.129453944607121 75, -185.6328125 75 M-185.6328125 75 C-185.6328125 36.56004355738752, -185.6328125 -1.8799128852249538, -185.6328125 -75 M-185.6328125 75 C-185.6328125 23.055055436986144, -185.6328125 -28.88988912602771, -185.6328125 -75" stroke="#9370DB" stroke-width="1.3" fill="none" stroke-dasharray="0 0" style=""/></g><g class="annotation-group text" transform="translate(-41.171875, -51)"><g class="label" style="" transform="translate(0,-12)"><foreignObject width="82.34375" height="24"><div xmlns="http://www.w3.org/1999/xhtml" style="display: table-cell; white-space: nowrap; line-height: 1.5; max-width: 122px; text-align: center;"><span class="nodeLabel markdown-node-label" style=""><p>«interface»</p></span></div></foreignObject></g></g><g class="label-group text" transform="translate(-85.4375, -27)"><g class="label" style="font-weight: bolder" transform="translate(0,-12)"><foreignObject width="170.875" height="24"><div xmlns="http://www.w3.org/1999/xhtml" style="display: table-cell; white-space: nowrap; line-height: 1.5; max-width: 198px; text-align: center;"><span class="nodeLabel markdown-node-label" style=""><p>OverdraftAlertListener</p></span></div></foreignObject></g></g><g class="members-group text" transform="translate(-173.6328125, 21)"/><g class="methods-group text" transform="translate(-173.6328125, 51)"><g class="label" style="" transform="translate(0,-12)"><foreignObject width="261.828125" height="24"><div xmlns="http://www.w3.org/1999/xhtml" style="display: table-cell; white-space: nowrap; line-height: 1.5; max-width: 295px; text-align: center;"><span class="nodeLabel markdown-node-label" style=""><p>+onOverdraft(OverdraftEvent) : void</p></span></div></foreignObject></g></g><g class="divider" style=""><path d="M-185.6328125 -3 C-38.956184835145564 -2.99960492806824, 107.72044282970887 -2.99920985613648, 185.6328125 -2.999 M-185.6328125 -3 C-98.48520055829468 -2.9997652688369905, -11.337588616589358 -2.999530537673981, 185.6328125 -2.999" stroke="#9370DB" stroke-width="1.3" fill="none" stroke-dasharray="0 0" style=""/></g><g class="divider" style=""><path d="M-185.6328125 21 C-40.868893891637185 21.000389920070322, 103.89502471672563 21.000779840140645, 185.6328125 21.001 M-185.6328125 21 C-87.04605673222986 21.000265542374866, 11.540699035540285 21.000531084749728, 185.6328125 21.001" stroke="#9370DB" stroke-width="1.3" fill="none" stroke-dasharray="0 0" style=""/></g></g><g class="node default" id="my-svg-classId-OverdraftEventRecorder-2" data-look="classic" transform="translate(111.5078125, 740)"><g class="basic label-container outer-path"><path d="M-103.5078125 -42 L103.5078125 -42 L103.5078125 42 L-103.5078125 42" stroke="none" stroke-width="0" fill="#ECECFF" style=""/><path d="M-103.5078125 -42 C-23.766365428099505 -42, 55.97508164380099 -42, 103.5078125 -42 M-103.5078125 -42 C-57.53849846641071 -42, -11.569184432821416 -42, 103.5078125 -42 M103.5078125 -42 C103.5078125 -10.729746904614366, 103.5078125 20.540506190771268, 103.5078125 42 M103.5078125 -42 C103.5078125 -11.353222732530252, 103.5078125 19.293554534939496, 103.5078125 42 M103.5078125 42 C24.226125208226122 42, -55.055562083547755 42, -103.5078125 42 M103.5078125 42 C59.08493219505892 42, 14.662051890117837 42, -103.5078125 42 M-103.5078125 42 C-103.5078125 18.734006831850017, -103.5078125 -4.5319863362999655, -103.5078125 -42 M-103.5078125 42 C-103.5078125 22.371473041567725, -103.5078125 2.7429460831354504, -103.5078125 -42" stroke="#9370DB" stroke-width="1.3" fill="none" stroke-dasharray="0 0" style=""/></g><g class="annotation-group text" transform="translate(0, -18)"/><g class="label-group text" transform="translate(-91.5078125, -18)"><g class="label" style="font-weight: bolder" transform="translate(0,-12)"><foreignObject width="183.015625" height="24"><div xmlns="http://www.w3.org/1999/xhtml" style="display: table-cell; white-space: nowrap; line-height: 1.5; max-width: 209px; text-align: center;"><span class="nodeLabel markdown-node-label" style=""><p>OverdraftEventRecorder</p></span></div></foreignObject></g></g><g class="members-group text" transform="translate(-91.5078125, 30)"/><g class="methods-group text" transform="translate(-91.5078125, 60)"/><g class="divider" style=""><path d="M-103.5078125 6 C-24.336674519348236 6.000382440397823, 54.83446346130353 6.000764880795647, 103.5078125 6.001 M-103.5078125 6 C-24.069047610390655 6.000383733183858, 55.36971727921869 6.000767466367717, 103.5078125 6.001" stroke="#9370DB" stroke-width="1.3" fill="none" stroke-dasharray="0 0" style=""/></g><g class="divider" style=""><path d="M-103.5078125 24 C-32.35343878963894 24.00034371499113, 38.80093492072211 24.000687429982257, 103.5078125 24.001 M-103.5078125 24 C-60.11328426542219 24.000209619579365, -16.718756030844375 24.00041923915873, 103.5078125 24.001" stroke="#9370DB" stroke-width="1.3" fill="none" stroke-dasharray="0 0" style=""/></g></g><g class="node default" id="my-svg-classId-CustomerOverdraftNotifier-3" data-look="classic" transform="translate(377.5234375, 740)"><g class="basic label-container outer-path"><path d="M-112.5078125 -42 L112.5078125 -42 L112.5078125 42 L-112.5078125 42" stroke="none" stroke-width="0" fill="#ECECFF" style=""/><path d="M-112.5078125 -42 C-49.9866077346535 -42, 12.534597030693007 -42, 112.5078125 -42 M-112.5078125 -42 C-33.06297232187404 -42, 46.381867856251915 -42, 112.5078125 -42 M112.5078125 -42 C112.5078125 -11.452597478864245, 112.5078125 19.09480504227151, 112.5078125 42 M112.5078125 -42 C112.5078125 -15.865636496840839, 112.5078125 10.268727006318322, 112.5078125 42 M112.5078125 42 C45.45260593297894 42, -21.60260063404212 42, -112.5078125 42 M112.5078125 42 C40.96248935433783 42, -30.582833791324333 42, -112.5078125 42 M-112.5078125 42 C-112.5078125 24.152249919629842, -112.5078125 6.304499839259684, -112.5078125 -42 M-112.5078125 42 C-112.5078125 25.144431672364625, -112.5078125 8.28886334472925, -112.5078125 -42" stroke="#9370DB" stroke-width="1.3" fill="none" stroke-dasharray="0 0" style=""/></g><g class="annotation-group text" transform="translate(0, -18)"/><g class="label-group text" transform="translate(-100.5078125, -18)"><g class="label" style="font-weight: bolder" transform="translate(0,-12)"><foreignObject width="201.015625" height="24"><div xmlns="http://www.w3.org/1999/xhtml" style="display: table-cell; white-space: nowrap; line-height: 1.5; max-width: 226px; text-align: center;"><span class="nodeLabel markdown-node-label" style=""><p>CustomerOverdraftNotifier</p></span></div></foreignObject></g></g><g class="members-group text" transform="translate(-100.5078125, 30)"/><g class="methods-group text" transform="translate(-100.5078125, 60)"/><g class="divider" style=""><path d="M-112.5078125 6 C-52.20866027709397 6.000267977622545, 8.090491945812062 6.000535955245089, 112.5078125 6.001 M-112.5078125 6 C-44.73442595867131 6.0003011941350355, 23.03896058265738 6.000602388270071, 112.5078125 6.001" stroke="#9370DB" stroke-width="1.3" fill="none" stroke-dasharray="0 0" style=""/></g><g class="divider" style=""><path d="M-112.5078125 24 C-45.108762317562096 24.000299530533415, 22.290287864875808 24.000599061066826, 112.5078125 24.001 M-112.5078125 24 C-23.998544353915847 24.000393347209314, 64.5107237921683 24.000786694418633, 112.5078125 24.001" stroke="#9370DB" stroke-width="1.3" fill="none" stroke-dasharray="0 0" style=""/></g></g><g class="node default" id="my-svg-classId-OverdraftAuditLogger-4" data-look="classic" transform="translate(633.0859375, 740)"><g class="basic label-container outer-path"><path d="M-93.0546875 -42 L93.0546875 -42 L93.0546875 42 L-93.0546875 42" stroke="none" stroke-width="0" fill="#ECECFF" style=""/><path d="M-93.0546875 -42 C-39.546116407269636 -42, 13.962454685460727 -42, 93.0546875 -42 M-93.0546875 -42 C-47.589685768757484 -42, -2.1246840375149674 -42, 93.0546875 -42 M93.0546875 -42 C93.0546875 -12.629502957346837, 93.0546875 16.740994085306326, 93.0546875 42 M93.0546875 -42 C93.0546875 -9.11676051715478, 93.0546875 23.76647896569044, 93.0546875 42 M93.0546875 42 C42.49036768771645 42, -8.0739521245671 42, -93.0546875 42 M93.0546875 42 C47.56621635743002 42, 2.0777452148600446 42, -93.0546875 42 M-93.0546875 42 C-93.0546875 23.309462285528515, -93.0546875 4.618924571057029, -93.0546875 -42 M-93.0546875 42 C-93.0546875 17.076367432532507, -93.0546875 -7.847265134934986, -93.0546875 -42" stroke="#9370DB" stroke-width="1.3" fill="none" stroke-dasharray="0 0" style=""/></g><g class="annotation-group text" transform="translate(0, -18)"/><g class="label-group text" transform="translate(-81.0546875, -18)"><g class="label" style="font-weight: bolder" transform="translate(0,-12)"><foreignObject width="162.109375" height="24"><div xmlns="http://www.w3.org/1999/xhtml" style="display: table-cell; white-space: nowrap; line-height: 1.5; max-width: 196px; text-align: center;"><span class="nodeLabel markdown-node-label" style=""><p>OverdraftAuditLogger</p></span></div></foreignObject></g></g><g class="members-group text" transform="translate(-81.0546875, 30)"/><g class="methods-group text" transform="translate(-81.0546875, 60)"/><g class="divider" style=""><path d="M-93.0546875 6 C-24.42532778889084 6.000368758208506, 44.20403192221832 6.000737516417011, 93.0546875 6.001 M-93.0546875 6 C-47.238949698201175 6.000246176409984, -1.42321189640235 6.000492352819967, 93.0546875 6.001" stroke="#9370DB" stroke-width="1.3" fill="none" stroke-dasharray="0 0" style=""/></g><g class="divider" style=""><path d="M-93.0546875 24 C-19.097595592315102 24.000397385096306, 54.859496315369796 24.000794770192613, 93.0546875 24.001 M-93.0546875 24 C-52.45816627478677 24.000218132596626, -11.86164504957354 24.00043626519325, 93.0546875 24.001" stroke="#9370DB" stroke-width="1.3" fill="none" stroke-dasharray="0 0" style=""/></g></g><g class="node default" id="my-svg-classId-AdminOverdraftAlertDispatcher-5" data-look="classic" transform="translate(916.4296875, 740)"><g class="basic label-container outer-path"><path d="M-130.2890625 -42 L130.2890625 -42 L130.2890625 42 L-130.2890625 42" stroke="none" stroke-width="0" fill="#ECECFF" style=""/><path d="M-130.2890625 -42 C-75.30011319335074 -42, -20.311163886701465 -42, 130.2890625 -42 M-130.2890625 -42 C-41.384760290765655 -42, 47.51954191846869 -42, 130.2890625 -42 M130.2890625 -42 C130.2890625 -13.885263366594181, 130.2890625 14.229473266811638, 130.2890625 42 M130.2890625 -42 C130.2890625 -21.28694164350576, 130.2890625 -0.5738832870115189, 130.2890625 42 M130.2890625 42 C26.929937627680033 42, -76.42918724463993 42, -130.2890625 42 M130.2890625 42 C56.91694088783936 42, -16.45518072432128 42, -130.2890625 42 M-130.2890625 42 C-130.2890625 16.02294640667297, -130.2890625 -9.954107186654063, -130.2890625 -42 M-130.2890625 42 C-130.2890625 16.264358047262935, -130.2890625 -9.471283905474131, -130.2890625 -42" stroke="#9370DB" stroke-width="1.3" fill="none" stroke-dasharray="0 0" style=""/></g><g class="annotation-group text" transform="translate(0, -18)"/><g class="label-group text" transform="translate(-118.2890625, -18)"><g class="label" style="font-weight: bolder" transform="translate(0,-12)"><foreignObject width="236.578125" height="24"><div xmlns="http://www.w3.org/1999/xhtml" style="display: table-cell; white-space: nowrap; line-height: 1.5; max-width: 260px; text-align: center;"><span class="nodeLabel markdown-node-label" style=""><p>AdminOverdraftAlertDispatcher</p></span></div></foreignObject></g></g><g class="members-group text" transform="translate(-118.2890625, 30)"/><g class="methods-group text" transform="translate(-118.2890625, 60)"/><g class="divider" style=""><path d="M-130.2890625 6 C-43.69447023027182 6.000332317197653, 42.90012203945636 6.0006646343953065, 130.2890625 6.001 M-130.2890625 6 C-76.31421964700053 6.0002071349728725, -22.339376794001055 6.000414269945745, 130.2890625 6.001" stroke="#9370DB" stroke-width="1.3" fill="none" stroke-dasharray="0 0" style=""/></g><g class="divider" style=""><path d="M-130.2890625 24 C-53.039574378807316 24.00029645423276, 24.209913742385368 24.000592908465524, 130.2890625 24.001 M-130.2890625 24 C-64.45679158699785 24.00025263928395, 1.375479326004296 24.0005052785679, 130.2890625 24.001" stroke="#9370DB" stroke-width="1.3" fill="none" stroke-dasharray="0 0" style=""/></g></g><g class="node default" id="my-svg-classId-OverdraftMonitor-6" data-look="classic" transform="translate(456.2890625, 71)"><g class="basic label-container outer-path"><path d="M-256.6171875 -63 L256.6171875 -63 L256.6171875 63 L-256.6171875 63" stroke="none" stroke-width="0" fill="#ECECFF" style=""/><path d="M-256.6171875 -63 C-60.07520176395141 -63, 136.46678397209718 -63, 256.6171875 -63 M-256.6171875 -63 C-122.18317206309644 -63, 12.250843373807129 -63, 256.6171875 -63 M256.6171875 -63 C256.6171875 -20.34314898401683, 256.6171875 22.313702031966343, 256.6171875 63 M256.6171875 -63 C256.6171875 -19.229827983770377, 256.6171875 24.540344032459245, 256.6171875 63 M256.6171875 63 C128.48335810724313 63, 0.34952871448626865 63, -256.6171875 63 M256.6171875 63 C114.27965629797188 63, -28.057874904056234 63, -256.6171875 63 M-256.6171875 63 C-256.6171875 16.565744723489416, -256.6171875 -29.868510553021167, -256.6171875 -63 M-256.6171875 63 C-256.6171875 16.86319531397045, -256.6171875 -29.2736093720591, -256.6171875 -63" stroke="#9370DB" stroke-width="1.3" fill="none" stroke-dasharray="0 0" style=""/></g><g class="annotation-group text" transform="translate(0, -39)"/><g class="label-group text" transform="translate(-64.78125, -39)"><g class="label" style="font-weight: bolder" transform="translate(0,-12)"><foreignObject width="129.5625" height="24"><div xmlns="http://www.w3.org/1999/xhtml" style="display: table-cell; white-space: nowrap; line-height: 1.5; max-width: 165px; text-align: center;"><span class="nodeLabel markdown-node-label" style=""><p>OverdraftMonitor</p></span></div></foreignObject></g></g><g class="members-group text" transform="translate(-244.6171875, 9)"/><g class="methods-group text" transform="translate(-244.6171875, 39)"><g class="label" style="" transform="translate(0,-12)"><foreignObject width="424.453125" height="24"><div xmlns="http://www.w3.org/1999/xhtml" style="display: table-cell; white-space: nowrap; line-height: 1.5; max-width: 440px; text-align: center;"><span class="nodeLabel markdown-node-label" style=""><p>+checkOverdraft(String, double, int, LocalDateTime) : void</p></span></div></foreignObject></g></g><g class="divider" style=""><path d="M-256.6171875 -15 C-120.88803293658529 -14.999735541574815, 14.84112162682942 -14.99947108314963, 256.6171875 -14.999 M-256.6171875 -15 C-80.8375401578759 -14.999657506090971, 94.94210718424819 -14.999315012181942, 256.6171875 -14.999" stroke="#9370DB" stroke-width="1.3" fill="none" stroke-dasharray="0 0" style=""/></g><g class="divider" style=""><path d="M-256.6171875 9 C-128.0210960439733 9.000250560168453, 0.5749954120533971 9.000501120336907, 256.6171875 9.001 M-256.6171875 9 C-137.56880852871876 9.000231957142331, -18.520429557437552 9.000463914284662, 256.6171875 9.001" stroke="#9370DB" stroke-width="1.3" fill="none" stroke-dasharray="0 0" style=""/></g></g><g class="node default" id="my-svg-classId-OverdraftAlertView-7" data-look="classic" transform="translate(916.4296875, 71)"><g class="basic label-container outer-path"><path d="M-84.7578125 -42 L84.7578125 -42 L84.7578125 42 L-84.7578125 42" stroke="none" stroke-width="0" fill="#ECECFF" style=""/><path d="M-84.7578125 -42 C-24.171458241794234 -42, 36.41489601641153 -42, 84.7578125 -42 M-84.7578125 -42 C-39.46387854861445 -42, 5.8300554027710945 -42, 84.7578125 -42 M84.7578125 -42 C84.7578125 -16.019981456004672, 84.7578125 9.960037087990656, 84.7578125 42 M84.7578125 -42 C84.7578125 -21.177213646149838, 84.7578125 -0.3544272922996754, 84.7578125 42 M84.7578125 42 C26.8429149488234 42, -31.071982602353202 42, -84.7578125 42 M84.7578125 42 C20.81115061888797 42, -43.13551126222406 42, -84.7578125 42 M-84.7578125 42 C-84.7578125 10.382379775572144, -84.7578125 -21.235240448855713, -84.7578125 -42 M-84.7578125 42 C-84.7578125 21.392760763466857, -84.7578125 0.7855215269337137, -84.7578125 -42" stroke="#9370DB" stroke-width="1.3" fill="none" stroke-dasharray="0 0" style=""/></g><g class="annotation-group text" transform="translate(0, -18)"/><g class="label-group text" transform="translate(-72.7578125, -18)"><g class="label" style="font-weight: bolder" transform="translate(0,-12)"><foreignObject width="145.515625" height="24"><div xmlns="http://www.w3.org/1999/xhtml" style="display: table-cell; white-space: nowrap; line-height: 1.5; max-width: 179px; text-align: center;"><span class="nodeLabel markdown-node-label" style=""><p>OverdraftAlertView</p></span></div></foreignObject></g></g><g class="members-group text" transform="translate(-72.7578125, 30)"/><g class="methods-group text" transform="translate(-72.7578125, 60)"/><g class="divider" style=""><path d="M-84.7578125 6 C-36.48151343054199 6.000284789670978, 11.794785638916025 6.000569579341957, 84.7578125 6.001 M-84.7578125 6 C-48.473364172404985 6.00021404781021, -12.18891584480997 6.0004280956204195, 84.7578125 6.001" stroke="#9370DB" stroke-width="1.3" fill="none" stroke-dasharray="0 0" style=""/></g><g class="divider" style=""><path d="M-84.7578125 24 C-37.51956242869221 24.00027866605259, 9.718687642615578 24.000557332105185, 84.7578125 24.001 M-84.7578125 24 C-29.35776138136802 24.000326813832757, 26.042289737263957 24.000653627665518, 84.7578125 24.001" stroke="#9370DB" stroke-width="1.3" fill="none" stroke-dasharray="0 0" style=""/></g></g></g></g></g><defs><filter id="my-svg-drop-shadow" height="130%" width="130%"><feDropShadow dx="4" dy="4" stdDeviation="0" flood-opacity="0.06" flood-color="#000000"/></filter></defs><defs><filter id="my-svg-drop-shadow-small" height="150%" width="150%"><feDropShadow dx="2" dy="2" stdDeviation="0" flood-opacity="0.06" flood-color="#000000"/></filter></defs></svg>