<svg id="my-svg" width="100%" xmlns="http://www.w3.org/2000/svg" xmlns:xlink="http://www.w3.org/1999/xlink" class="classDiagram" style="max-width: 973.656px; background-color: white;" viewBox="0 0 973.65625 694" role="graphics-document document" aria-roledescription="class"><style>#my-svg{font-family:"trebuchet ms",verdana,arial,sans-serif;font-size:16px;fill:#333;}@keyframes edge-animation-frame{from{stroke-dashoffset:0;}}@keyframes dash{to{stroke-dashoffset:0;}}#my-svg .edge-animation-slow{stroke-dasharray:9,5!important;stroke-dashoffset:900;animation:dash 50s linear infinite;stroke-linecap:round;}#my-svg .edge-animation-fast{stroke-dasharray:9,5!important;stroke-dashoffset:900;animation:dash 20s linear infinite;stroke-linecap:round;}#my-svg .error-icon{fill:#552222;}#my-svg .error-text{fill:#552222;stroke:#552222;}#my-svg .edge-thickness-normal{stroke-width:1px;}#my-svg .edge-thickness-thick{stroke-width:3.5px;}#my-svg .edge-pattern-solid{stroke-dasharray:0;}#my-svg .edge-thickness-invisible{stroke-width:0;fill:none;}#my-svg .edge-pattern-dashed{stroke-dasharray:3;}#my-svg .edge-pattern-dotted{stroke-dasharray:2;}#my-svg .marker{fill:#333333;stroke:#333333;}#my-svg .marker.cross{stroke:#333333;}#my-svg svg{font-family:"trebuchet ms",verdana,arial,sans-serif;font-size:16px;}#my-svg p{margin:0;}#my-svg g.classGroup text{fill:#9370DB;stroke:none;font-family:"trebuchet ms",verdana,arial,sans-serif;font-size:10px;}#my-svg g.classGroup text .title{font-weight:bolder;}#my-svg .cluster-label text{fill:#333;}#my-svg .cluster-label span{color:#333;}#my-svg .cluster-label span p{background-color:transparent;}#my-svg .cluster rect{fill:#ffffde;stroke:#aaaa33;stroke-width:1px;}#my-svg .cluster text{fill:#333;}#my-svg .cluster span{color:#333;}#my-svg .nodeLabel,#my-svg .edgeLabel{color:#131300;}#my-svg .noteLabel .nodeLabel,#my-svg .noteLabel .edgeLabel{color:black;}#my-svg .edgeLabel .label rect{fill:#ECECFF;}#my-svg .label text{fill:#131300;}#my-svg .labelBkg{background:#ECECFF;}#my-svg .edgeLabel .label span{background:#ECECFF;}#my-svg .classTitle{font-weight:bolder;}#my-svg .node rect,#my-svg .node circle,#my-svg .node ellipse,#my-svg .node polygon,#my-svg .node path{fill:#ECECFF;stroke:#9370DB;stroke-width:1;}#my-svg .divider{stroke:#9370DB;stroke-width:1;}#my-svg g.clickable{cursor:pointer;}#my-svg g.classGroup rect{fill:#ECECFF;stroke:#9370DB;}#my-svg g.classGroup line{stroke:#9370DB;stroke-width:1;}#my-svg .classLabel .box{stroke:none;stroke-width:0;fill:#ECECFF;opacity:0.5;}#my-svg .classLabel .label{fill:#9370DB;font-size:10px;}#my-svg .relation{stroke:#333333;stroke-width:1;fill:none;}#my-svg .dashed-line{stroke-dasharray:3;}#my-svg .dotted-line{stroke-dasharray:1 2;}#my-svg [id$="-compositionStart"],#my-svg .composition{fill:#333333!important;stroke:#333333!important;stroke-width:1;}#my-svg [id$="-compositionEnd"],#my-svg .composition{fill:#333333!important;stroke:#333333!important;stroke-width:1;}#my-svg [id$="-dependencyStart"],#my-svg .dependency{fill:#333333!important;stroke:#333333!important;stroke-width:1;}#my-svg [id$="-dependencyEnd"],#my-svg .dependency{fill:#333333!important;stroke:#333333!important;stroke-width:1;}#my-svg [id$="-extensionStart"],#my-svg .extension{fill:transparent!important;stroke:#333333!important;stroke-width:1;}#my-svg [id$="-extensionEnd"],#my-svg .extension{fill:transparent!important;stroke:#333333!important;stroke-width:1;}#my-svg [id$="-aggregationStart"],#my-svg .aggregation{fill:transparent!important;stroke:#333333!important;stroke-width:1;}#my-svg [id$="-aggregationEnd"],#my-svg .aggregation{fill:transparent!important;stroke:#333333!important;stroke-width:1;}#my-svg [id$="-lollipopStart"],#my-svg .lollipop{fill:#ECECFF!important;stroke:#333333!important;stroke-width:1;}#my-svg [id$="-lollipopEnd"],#my-svg .lollipop{fill:#ECECFF!important;stroke:#333333!important;stroke-width:1;}#my-svg .edgeTerminals{font-size:11px;line-height:initial;}#my-svg .classTitleText{text-anchor:middle;font-size:18px;fill:#333;}#my-svg .edgeLabel[data-look="neo"]{background-color:rgba(232,232,232, 0.8);text-align:center;}#my-svg .edgeLabel[data-look="neo"] p{background-color:rgba(232,232,232, 0.8);}#my-svg .edgeLabel[data-look="neo"] rect{opacity:0.5;background-color:rgba(232,232,232, 0.8);fill:rgba(232,232,232, 0.8);}#my-svg .label-icon{display:inline-block;height:1em;overflow:visible;vertical-align:-0.125em;}#my-svg .node .label-icon path{fill:currentColor;stroke:revert;stroke-width:revert;}#my-svg .node .neo-node{stroke:#9370DB;}#my-svg [data-look="neo"].node rect,#my-svg [data-look="neo"].cluster rect,#my-svg [data-look="neo"].node polygon{stroke:#9370DB;filter:drop-shadow(1px 2px 2px rgba(185, 185, 185, 1));}#my-svg [data-look="neo"].node path{stroke:#9370DB;stroke-width:1px;}#my-svg [data-look="neo"].node .outer-path{filter:drop-shadow(1px 2px 2px rgba(185, 185, 185, 1));}#my-svg [data-look="neo"].node .neo-line path{stroke:#9370DB;filter:none;}#my-svg [data-look="neo"].node circle{stroke:#9370DB;filter:drop-shadow(1px 2px 2px rgba(185, 185, 185, 1));}#my-svg [data-look="neo"].node circle .state-start{fill:#000000;}#my-svg [data-look="neo"].icon-shape .icon{fill:#9370DB;filter:drop-shadow(1px 2px 2px rgba(185, 185, 185, 1));}#my-svg [data-look="neo"].icon-shape .icon-neo path{stroke:#9370DB;filter:drop-shadow(1px 2px 2px rgba(185, 185, 185, 1));}#my-svg :root{--mermaid-font-family:"trebuchet ms",verdana,arial,sans-serif;}</style><g><defs><marker id="my-svg_class-aggregationStart" class="marker aggregation class" refX="18" refY="7" markerWidth="190" markerHeight="240" orient="auto"><path d="M 18,7 L9,13 L1,7 L9,1 Z"/></marker></defs><defs><marker id="my-svg_class-aggregationEnd" class="marker aggregation class" refX="1" refY="7" markerWidth="20" markerHeight="28" orient="auto"><path d="M 18,7 L9,13 L1,7 L9,1 Z"/></marker></defs><defs><marker id="my-svg_class-aggregationStart-margin" class="marker aggregation class" refX="15" refY="7" markerWidth="190" markerHeight="240" orient="auto" markerUnits="userSpaceOnUse"><path d="M 18,7 L9,13 L1,7 L9,1 Z" style="stroke-width: 2;"/></marker></defs><defs><marker id="my-svg_class-aggregationEnd-margin" class="marker aggregation class" refX="1" refY="7" markerWidth="20" markerHeight="28" orient="auto" markerUnits="userSpaceOnUse"><path d="M 18,7 L9,13 L1,7 L9,1 Z" style="stroke-width: 2;"/></marker></defs><defs><marker id="my-svg_class-extensionStart" class="marker extension class" refX="18" refY="7" markerWidth="190" markerHeight="240" orient="auto" markerUnits="userSpaceOnUse"><path d="M 1,7 L18,13 V 1 Z"/></marker></defs><defs><marker id="my-svg_class-extensionEnd" class="marker extension class" refX="1" refY="7" markerWidth="20" markerHeight="28" orient="auto"><path d="M 1,1 V 13 L18,7 Z"/></marker></defs><marker id="my-svg_class-extensionStart-margin" class="marker extension class" refX="18" refY="7" markerWidth="20" markerHeight="28" orient="auto" markerUnits="userSpaceOnUse" viewBox="0 0 20 14"><polygon points="10,7 18,13 18,1" style="stroke-width: 2; stroke-dasharray: 0;"/></marker><defs><marker id="my-svg_class-extensionEnd-margin" class="marker extension class" refX="9" refY="7" markerWidth="20" markerHeight="28" orient="auto" markerUnits="userSpaceOnUse" viewBox="0 0 20 14"><polygon points="10,1 10,13 18,7" style="stroke-width: 2; stroke-dasharray: 0;"/></marker></defs><defs><marker id="my-svg_class-compositionStart" class="marker composition class" refX="18" refY="7" markerWidth="190" markerHeight="240" orient="auto"><path d="M 18,7 L9,13 L1,7 L9,1 Z"/></marker></defs><defs><marker id="my-svg_class-compositionEnd" class="marker composition class" refX="1" refY="7" markerWidth="20" markerHeight="28" orient="auto"><path d="M 18,7 L9,13 L1,7 L9,1 Z"/></marker></defs><defs><marker id="my-svg_class-compositionStart-margin" class="marker composition class" refX="15" refY="7" markerWidth="190" markerHeight="240" orient="auto" markerUnits="userSpaceOnUse"><path viewBox="0 0 15 15" d="M 18,7 L9,13 L1,7 L9,1 Z" style="stroke-width: 0;"/></marker></defs><defs><marker id="my-svg_class-compositionEnd-margin" class="marker composition class" refX="3.5" refY="7" markerWidth="20" markerHeight="28" orient="auto" markerUnits="userSpaceOnUse"><path d="M 18,7 L9,13 L1,7 L9,1 Z" style="stroke-width: 0;"/></marker></defs><defs><marker id="my-svg_class-dependencyStart" class="marker dependency class" refX="6" refY="7" markerWidth="190" markerHeight="240" orient="auto"><path d="M 5,7 L9,13 L1,7 L9,1 Z"/></marker></defs><defs><marker id="my-svg_class-dependencyEnd" class="marker dependency class" refX="13" refY="7" markerWidth="20" markerHeight="28" orient="auto"><path d="M 18,7 L9,13 L14,7 L9,1 Z"/></marker></defs><defs><marker id="my-svg_class-dependencyStart-margin" class="marker dependency class" refX="4" refY="7" markerWidth="190" markerHeight="240" orient="auto" markerUnits="userSpaceOnUse"><path d="M 5,7 L9,13 L1,7 L9,1 Z" style="stroke-width: 0;"/></marker></defs><defs><marker id="my-svg_class-dependencyEnd-margin" class="marker dependency class" refX="16" refY="7" markerWidth="20" markerHeight="28" orient="auto" markerUnits="userSpaceOnUse"><path d="M 18,7 L9,13 L14,7 L9,1 Z" style="stroke-width: 0;"/></marker></defs><defs><marker id="my-svg_class-lollipopStart" class="marker lollipop class" refX="13" refY="7" markerWidth="190" markerHeight="240" orient="auto"><circle fill="transparent" cx="7" cy="7" r="6"/></marker></defs><defs><marker id="my-svg_class-lollipopEnd" class="marker lollipop class" refX="1" refY="7" markerWidth="190" markerHeight="240" orient="auto"><circle fill="transparent" cx="7" cy="7" r="6"/></marker></defs><defs><marker id="my-svg_class-lollipopStart-margin" class="marker lollipop class" refX="13" refY="7" markerWidth="190" markerHeight="240" orient="auto" markerUnits="userSpaceOnUse"><circle fill="transparent" cx="7" cy="7" r="6" stroke-width="2"/></marker></defs><defs><marker id="my-svg_class-lollipopEnd-margin" class="marker lollipop class" refX="1" refY="7" markerWidth="190" markerHeight="240" orient="auto" markerUnits="userSpaceOnUse"><circle fill="transparent" cx="7" cy="7" r="6" stroke-width="2"/></marker></defs><g class="root"><g class="clusters"/><g class="edgePaths"><path d="M257.256,552.111L244.625,556.259C231.993,560.407,206.731,568.704,194.1,577.019C181.469,585.333,181.469,593.667,181.469,597.833L181.469,602" id="my-svg-id_LoanApprovalStrategy_StandardLoanApprovalStrategy_1" class="edge-thickness-normal edge-pattern-dashed relation" style=";;;" data-edge="true" data-et="edge" data-id="id_LoanApprovalStrategy_StandardLoanApprovalStrategy_1" data-points="W3sieCI6MjczLjY0NDUzMTI1LCJ5Ijo1NDYuNzI4ODA3NDcxMjY0NH0seyJ4IjoxODEuNDY4NzUsInkiOjU3N30seyJ4IjoxODEuNDY4NzUsInkiOjYwMn1d" data-look="classic" marker-start="url(#my-svg_class-extensionStart)"/><path d="M485.969,569.25L485.969,570.542C485.969,571.833,485.969,574.417,485.969,579.875C485.969,585.333,485.969,593.667,485.969,597.833L485.969,602" id="my-svg-id_LoanApprovalStrategy_PremiumLoanApprovalStrategy_2" class="edge-thickness-normal edge-pattern-dashed relation" style=";;;" data-edge="true" data-et="edge" data-id="id_LoanApprovalStrategy_PremiumLoanApprovalStrategy_2" data-points="W3sieCI6NDg1Ljk2ODc1LCJ5Ijo1NTJ9LHsieCI6NDg1Ljk2ODc1LCJ5Ijo1Nzd9LHsieCI6NDg1Ljk2ODc1LCJ5Ijo2MDJ9XQ==" data-look="classic" marker-start="url(#my-svg_class-extensionStart)"/><path d="M714.673,552.527L727.024,556.606C739.376,560.684,764.078,568.842,776.43,577.088C788.781,585.333,788.781,593.667,788.781,597.833L788.781,602" id="my-svg-id_LoanApprovalStrategy_BusinessLoanApprovalStrategy_3" class="edge-thickness-normal edge-pattern-dashed relation" style=";;;" data-edge="true" data-et="edge" data-id="id_LoanApprovalStrategy_BusinessLoanApprovalStrategy_3" data-points="W3sieCI6Njk4LjI5Mjk2ODc1LCJ5Ijo1NDcuMTE3Mzg5MDYwODg3NX0seyJ4Ijo3ODguNzgxMjUsInkiOjU3N30seyJ4Ijo3ODguNzgxMjUsInkiOjYwMn1d" data-look="classic" marker-start="url(#my-svg_class-extensionStart)"/><path d="M233.211,331L233.211,338.667C233.211,346.333,233.211,361.667,242.813,373.132C252.414,384.598,271.618,392.195,281.219,395.994L290.821,399.793" id="my-svg-id_LoanApprovalStrategyFactory_LoanApprovalStrategy_4" class="edge-thickness-normal edge-pattern-solid relation" style=";;;" data-edge="true" data-et="edge" data-id="id_LoanApprovalStrategyFactory_LoanApprovalStrategy_4" data-points="W3sieCI6MjMzLjIxMDkzNzUsInkiOjMzMX0seyJ4IjoyMzMuMjEwOTM3NSwieSI6Mzc3fSx7IngiOjI5Ni40MDAzOTA2MjUsInkiOjQwMn1d" data-look="classic" marker-end="url(#my-svg_class-dependencyEnd)"/><path d="M737.039,352L737.039,356.167C737.039,360.333,737.039,368.667,727.507,376.63C717.975,384.593,698.91,392.187,689.378,395.983L679.846,399.78" id="my-svg-id_LoanApprovalContext_LoanApprovalStrategy_5" class="edge-thickness-normal edge-pattern-solid relation" style=";;;" data-edge="true" data-et="edge" data-id="id_LoanApprovalContext_LoanApprovalStrategy_5" data-points="W3sieCI6NzM3LjAzOTA2MjUsInkiOjM1Mn0seyJ4Ijo3MzcuMDM5MDYyNSwieSI6Mzc3fSx7IngiOjY3NC4yNzE0ODQzNzUsInkiOjQwMn1d" data-look="classic" marker-end="url(#my-svg_class-dependencyEnd)"/><path d="M305.017,134L293.049,138.167C281.082,142.333,257.146,150.667,245.179,161.5C233.211,172.333,233.211,185.667,233.211,192.333L233.211,199" id="my-svg-id_AbstractLoanApplicationProcessor_LoanApprovalStrategyFactory_6" class="edge-thickness-normal edge-pattern-solid relation" style=";;;" data-edge="true" data-et="edge" data-id="id_AbstractLoanApplicationProcessor_LoanApprovalStrategyFactory_6" data-points="W3sieCI6MzA1LjAxNzEzNDIzMjk1NDUsInkiOjEzNH0seyJ4IjoyMzMuMjEwOTM3NSwieSI6MTU5fSx7IngiOjIzMy4yMTA5Mzc1LCJ5IjoyMDV9XQ==" data-look="classic" marker-end="url(#my-svg_class-dependencyEnd)"/><path d="M665.712,134L677.6,138.167C689.488,142.333,713.263,150.667,725.151,158C737.039,165.333,737.039,171.667,737.039,174.833L737.039,178" id="my-svg-id_AbstractLoanApplicationProcessor_LoanApprovalContext_7" class="edge-thickness-normal edge-pattern-solid relation" style=";;;" data-edge="true" data-et="edge" data-id="id_AbstractLoanApplicationProcessor_LoanApprovalContext_7" data-points="W3sieCI6NjY1LjcxMjI2OTE3NjEzNjQsInkiOjEzNH0seyJ4Ijo3MzcuMDM5MDYyNSwieSI6MTU5fSx7IngiOjczNy4wMzkwNjI1LCJ5IjoxODR9XQ==" data-look="classic" marker-end="url(#my-svg_class-dependencyEnd)"/></g><g class="edgeLabels"><g class="edgeLabel"><g class="label" data-id="id_LoanApprovalStrategy_StandardLoanApprovalStrategy_1" transform="translate(0, 0)"><foreignObject width="0" height="0"><div xmlns="http://www.w3.org/1999/xhtml" class="labelBkg" style="display: table-cell; white-space: nowrap; line-height: 1.5; max-width: 200px; text-align: center;"><span class="edgeLabel"></span></div></foreignObject></g></g><g class="edgeLabel"><g class="label" data-id="id_LoanApprovalStrategy_PremiumLoanApprovalStrategy_2" transform="translate(0, 0)"><foreignObject width="0" height="0"><div xmlns="http://www.w3.org/1999/xhtml" class="labelBkg" style="display: table-cell; white-space: nowrap; line-height: 1.5; max-width: 200px; text-align: center;"><span class="edgeLabel"></span></div></foreignObject></g></g><g class="edgeLabel"><g class="label" data-id="id_LoanApprovalStrategy_BusinessLoanApprovalStrategy_3" transform="translate(0, 0)"><foreignObject width="0" height="0"><div xmlns="http://www.w3.org/1999/xhtml" class="labelBkg" style="display: table-cell; white-space: nowrap; line-height: 1.5; max-width: 200px; text-align: center;"><span class="edgeLabel"></span></div></foreignObject></g></g><g class="edgeLabel"><g class="label" data-id="id_LoanApprovalStrategyFactory_LoanApprovalStrategy_4" transform="translate(0, 0)"><foreignObject width="0" height="0"><div xmlns="http://www.w3.org/1999/xhtml" class="labelBkg" style="display: table-cell; white-space: nowrap; line-height: 1.5; max-width: 200px; text-align: center;"><span class="edgeLabel"></span></div></foreignObject></g></g><g class="edgeLabel"><g class="label" data-id="id_LoanApprovalContext_LoanApprovalStrategy_5" transform="translate(0, 0)"><foreignObject width="0" height="0"><div xmlns="http://www.w3.org/1999/xhtml" class="labelBkg" style="display: table-cell; white-space: nowrap; line-height: 1.5; max-width: 200px; text-align: center;"><span class="edgeLabel"></span></div></foreignObject></g></g><g class="edgeLabel"><g class="label" data-id="id_AbstractLoanApplicationProcessor_LoanApprovalStrategyFactory_6" transform="translate(0, 0)"><foreignObject width="0" height="0"><div xmlns="http://www.w3.org/1999/xhtml" class="labelBkg" style="display: table-cell; white-space: nowrap; line-height: 1.5; max-width: 200px; text-align: center;"><span class="edgeLabel"></span></div></foreignObject></g></g><g class="edgeLabel"><g class="label" data-id="id_AbstractLoanApplicationProcessor_LoanApprovalContext_7" transform="translate(0, 0)"><foreignObject width="0" height="0"><div xmlns="http://www.w3.org/1999/xhtml" class="labelBkg" style="display: table-cell; white-space: nowrap; line-height: 1.5; max-width: 200px; text-align: center;"><span class="edgeLabel"></span></div></foreignObject></g></g></g><g class="nodes"><g class="node default" id="my-svg-classId-LoanApprovalStrategy-0" data-look="classic" transform="translate(485.96875, 477)"><g class="basic label-container outer-path"><path d="M-212.32421875 -75 L212.32421875 -75 L212.32421875 75 L-212.32421875 75" stroke="none" stroke-width="0" fill="#ECECFF" style=""/><path d="M-212.32421875 -75 C-95.87631427251117 -75, 20.571590204977667 -75, 212.32421875 -75 M-212.32421875 -75 C-87.89921656893655 -75, 36.525785612126896 -75, 212.32421875 -75 M212.32421875 -75 C212.32421875 -18.090700840781125, 212.32421875 38.81859831843775, 212.32421875 75 M212.32421875 -75 C212.32421875 -37.45762225706522, 212.32421875 0.0847554858695645, 212.32421875 75 M212.32421875 75 C98.15251811957096 75, -16.019182510858087 75, -212.32421875 75 M212.32421875 75 C93.31869416456799 75, -25.686830420864027 75, -212.32421875 75 M-212.32421875 75 C-212.32421875 44.529349177319546, -212.32421875 14.058698354639098, -212.32421875 -75 M-212.32421875 75 C-212.32421875 23.87187537875591, -212.32421875 -27.25624924248818, -212.32421875 -75" stroke="#9370DB" stroke-width="1.3" fill="none" stroke-dasharray="0 0" style=""/></g><g class="annotation-group text" transform="translate(-41.171875, -51)"><g class="label" style="" transform="translate(0,-12)"><foreignObject width="82.34375" height="24"><div xmlns="http://www.w3.org/1999/xhtml" style="display: table-cell; white-space: nowrap; line-height: 1.5; max-width: 122px; text-align: center;"><span class="nodeLabel markdown-node-label" style=""><p>«interface»</p></span></div></foreignObject></g></g><g class="label-group text" transform="translate(-81.8515625, -27)"><g class="label" style="font-weight: bolder" transform="translate(0,-12)"><foreignObject width="163.703125" height="24"><div xmlns="http://www.w3.org/1999/xhtml" style="display: table-cell; white-space: nowrap; line-height: 1.5; max-width: 199px; text-align: center;"><span class="nodeLabel markdown-node-label" style=""><p>LoanApprovalStrategy</p></span></div></foreignObject></g></g><g class="members-group text" transform="translate(-200.32421875, 21)"/><g class="methods-group text" transform="translate(-200.32421875, 51)"><g class="label" style="" transform="translate(0,-12)"><foreignObject width="318.796875" height="24"><div xmlns="http://www.w3.org/1999/xhtml" style="display: table-cell; white-space: nowrap; line-height: 1.5; max-width: 353px; text-align: center;"><span class="nodeLabel markdown-node-label" style=""><p>+approve(BigDecimal, BigDecimal) : boolean</p></span></div></foreignObject></g></g><g class="divider" style=""><path d="M-212.32421875 -3 C-43.6338085207893 -2.999602752782461, 125.0566017084214 -2.999205505564922, 212.32421875 -2.999 M-212.32421875 -3 C-105.7222182092636 -2.9997489641050645, 0.8797823314727964 -2.999497928210129, 212.32421875 -2.999" stroke="#9370DB" stroke-width="1.3" fill="none" stroke-dasharray="0 0" style=""/></g><g class="divider" style=""><path d="M-212.32421875 21 C-68.95591446972202 21.00033761646487, 74.41238981055596 21.000675232929737, 212.32421875 21.001 M-212.32421875 21 C-58.4854280595454 21.00036227329976, 95.3533626309092 21.000724546599518, 212.32421875 21.001" stroke="#9370DB" stroke-width="1.3" fill="none" stroke-dasharray="0 0" style=""/></g></g><g class="node default" id="my-svg-classId-StandardLoanApprovalStrategy-1" data-look="classic" transform="translate(181.46875, 644)"><g class="basic label-container outer-path"><path d="M-127.0703125 -42 L127.0703125 -42 L127.0703125 42 L-127.0703125 42" stroke="none" stroke-width="0" fill="#ECECFF" style=""/><path d="M-127.0703125 -42 C-49.7715970865554 -42, 27.527118326889195 -42, 127.0703125 -42 M-127.0703125 -42 C-25.877525901303983 -42, 75.31526069739203 -42, 127.0703125 -42 M127.0703125 -42 C127.0703125 -11.003146697398599, 127.0703125 19.993706605202803, 127.0703125 42 M127.0703125 -42 C127.0703125 -15.63512067140725, 127.0703125 10.7297586571855, 127.0703125 42 M127.0703125 42 C60.928837218909294 42, -5.212638062181412 42, -127.0703125 42 M127.0703125 42 C33.777515441425024 42, -59.51528161714995 42, -127.0703125 42 M-127.0703125 42 C-127.0703125 24.279349691398394, -127.0703125 6.558699382796789, -127.0703125 -42 M-127.0703125 42 C-127.0703125 13.49689518131067, -127.0703125 -15.00620963737866, -127.0703125 -42" stroke="#9370DB" stroke-width="1.3" fill="none" stroke-dasharray="0 0" style=""/></g><g class="annotation-group text" transform="translate(0, -18)"/><g class="label-group text" transform="translate(-115.0703125, -18)"><g class="label" style="font-weight: bolder" transform="translate(0,-12)"><foreignObject width="230.140625" height="24"><div xmlns="http://www.w3.org/1999/xhtml" style="display: table-cell; white-space: nowrap; line-height: 1.5; max-width: 255px; text-align: center;"><span class="nodeLabel markdown-node-label" style=""><p>StandardLoanApprovalStrategy</p></span></div></foreignObject></g></g><g class="members-group text" transform="translate(-115.0703125, 30)"/><g class="methods-group text" transform="translate(-115.0703125, 60)"/><g class="divider" style=""><path d="M-127.0703125 6 C-59.438433534595646 6.0002661199049365, 8.193445430808708 6.000532239809872, 127.0703125 6.001 M-127.0703125 6 C-72.25428803437053 6.000215691704015, -17.438263568741064 6.00043138340803, 127.0703125 6.001" stroke="#9370DB" stroke-width="1.3" fill="none" stroke-dasharray="0 0" style=""/></g><g class="divider" style=""><path d="M-127.0703125 24 C-52.078142278646425 24.000295081395276, 22.91402794270715 24.00059016279055, 127.0703125 24.001 M-127.0703125 24 C-27.69296030044154 24.00039103292596, 71.68439189911692 24.000782065851926, 127.0703125 24.001" stroke="#9370DB" stroke-width="1.3" fill="none" stroke-dasharray="0 0" style=""/></g></g><g class="node default" id="my-svg-classId-PremiumLoanApprovalStrategy-2" data-look="classic" transform="translate(485.96875, 644)"><g class="basic label-container outer-path"><path d="M-127.4296875 -42 L127.4296875 -42 L127.4296875 42 L-127.4296875 42" stroke="none" stroke-width="0" fill="#ECECFF" style=""/><path d="M-127.4296875 -42 C-43.260361284964844 -42, 40.90896493007031 -42, 127.4296875 -42 M-127.4296875 -42 C-60.47110101312644 -42, 6.487485473747114 -42, 127.4296875 -42 M127.4296875 -42 C127.4296875 -24.61796190979582, 127.4296875 -7.23592381959164, 127.4296875 42 M127.4296875 -42 C127.4296875 -20.2945976647677, 127.4296875 1.4108046704646, 127.4296875 42 M127.4296875 42 C57.51192826632058 42, -12.405830967358838 42, -127.4296875 42 M127.4296875 42 C45.243760386610134 42, -36.94216672677973 42, -127.4296875 42 M-127.4296875 42 C-127.4296875 13.405705279330334, -127.4296875 -15.188589441339332, -127.4296875 -42 M-127.4296875 42 C-127.4296875 18.688733416036705, -127.4296875 -4.622533167926591, -127.4296875 -42" stroke="#9370DB" stroke-width="1.3" fill="none" stroke-dasharray="0 0" style=""/></g><g class="annotation-group text" transform="translate(0, -18)"/><g class="label-group text" transform="translate(-115.4296875, -18)"><g class="label" style="font-weight: bolder" transform="translate(0,-12)"><foreignObject width="230.859375" height="24"><div xmlns="http://www.w3.org/1999/xhtml" style="display: table-cell; white-space: nowrap; line-height: 1.5; max-width: 257px; text-align: center;"><span class="nodeLabel markdown-node-label" style=""><p>PremiumLoanApprovalStrategy</p></span></div></foreignObject></g></g><g class="members-group text" transform="translate(-115.4296875, 30)"/><g class="methods-group text" transform="translate(-115.4296875, 60)"/><g class="divider" style=""><path d="M-127.4296875 6 C-69.27122140689423 6.000228198260681, -11.112755313788455 6.000456396521361, 127.4296875 6.001 M-127.4296875 6 C-46.98630099269056 6.000315638326066, 33.45708551461888 6.000631276652133, 127.4296875 6.001" stroke="#9370DB" stroke-width="1.3" fill="none" stroke-dasharray="0 0" style=""/></g><g class="divider" style=""><path d="M-127.4296875 24 C-63.486079286627366 24.00025089761055, 0.4575289267452689 24.000501795221098, 127.4296875 24.001 M-127.4296875 24 C-57.05749467808762 24.000276121656587, 13.314698143824756 24.000552243313177, 127.4296875 24.001" stroke="#9370DB" stroke-width="1.3" fill="none" stroke-dasharray="0 0" style=""/></g></g><g class="node default" id="my-svg-classId-BusinessLoanApprovalStrategy-3" data-look="classic" transform="translate(788.78125, 644)"><g class="basic label-container outer-path"><path d="M-125.3828125 -42 L125.3828125 -42 L125.3828125 42 L-125.3828125 42" stroke="none" stroke-width="0" fill="#ECECFF" style=""/><path d="M-125.3828125 -42 C-72.20556916115879 -42, -19.028325822317598 -42, 125.3828125 -42 M-125.3828125 -42 C-60.07913009463478 -42, 5.224552310730445 -42, 125.3828125 -42 M125.3828125 -42 C125.3828125 -9.232907067065199, 125.3828125 23.534185865869603, 125.3828125 42 M125.3828125 -42 C125.3828125 -10.077492547342914, 125.3828125 21.845014905314173, 125.3828125 42 M125.3828125 42 C48.21629979923263 42, -28.95021290153474 42, -125.3828125 42 M125.3828125 42 C73.37763402272913 42, 21.372455545458266 42, -125.3828125 42 M-125.3828125 42 C-125.3828125 21.091705892415842, -125.3828125 0.18341178483168363, -125.3828125 -42 M-125.3828125 42 C-125.3828125 17.110655481681917, -125.3828125 -7.778689036636166, -125.3828125 -42" stroke="#9370DB" stroke-width="1.3" fill="none" stroke-dasharray="0 0" style=""/></g><g class="annotation-group text" transform="translate(0, -18)"/><g class="label-group text" transform="translate(-113.3828125, -18)"><g class="label" style="font-weight: bolder" transform="translate(0,-12)"><foreignObject width="226.765625" height="24"><div xmlns="http://www.w3.org/1999/xhtml" style="display: table-cell; white-space: nowrap; line-height: 1.5; max-width: 256px; text-align: center;"><span class="nodeLabel markdown-node-label" style=""><p>BusinessLoanApprovalStrategy</p></span></div></foreignObject></g></g><g class="members-group text" transform="translate(-113.3828125, 30)"/><g class="methods-group text" transform="translate(-113.3828125, 60)"/><g class="divider" style=""><path d="M-125.3828125 6 C-39.798285287786186 6.0003412928993445, 45.78624192442763 6.00068258579869, 125.3828125 6.001 M-125.3828125 6 C-36.70851912141555 6.000353614229935, 51.9657742571689 6.000707228459871, 125.3828125 6.001" stroke="#9370DB" stroke-width="1.3" fill="none" stroke-dasharray="0 0" style=""/></g><g class="divider" style=""><path d="M-125.3828125 24 C-28.575853990337677 24.00038604556948, 68.23110451932465 24.000772091138966, 125.3828125 24.001 M-125.3828125 24 C-53.36957890771255 24.00028717346563, 18.643654684574898 24.000574346931263, 125.3828125 24.001" stroke="#9370DB" stroke-width="1.3" fill="none" stroke-dasharray="0 0" style=""/></g></g><g class="node default" id="my-svg-classId-LoanApprovalStrategyFactory-4" data-look="classic" transform="translate(233.2109375, 268)"><g class="basic label-container outer-path"><path d="M-225.2109375 -63 L225.2109375 -63 L225.2109375 63 L-225.2109375 63" stroke="none" stroke-width="0" fill="#ECECFF" style=""/><path d="M-225.2109375 -63 C-130.8414100210021 -63, -36.47188254200421 -63, 225.2109375 -63 M-225.2109375 -63 C-71.93799004686568 -63, 81.33495740626864 -63, 225.2109375 -63 M225.2109375 -63 C225.2109375 -19.241529718815244, 225.2109375 24.516940562369513, 225.2109375 63 M225.2109375 -63 C225.2109375 -19.4291319865185, 225.2109375 24.141736026963002, 225.2109375 63 M225.2109375 63 C108.53762266861573 63, -8.13569216276855 63, -225.2109375 63 M225.2109375 63 C80.3507575202515 63, -64.50942245949699 63, -225.2109375 63 M-225.2109375 63 C-225.2109375 35.92113196282072, -225.2109375 8.842263925641454, -225.2109375 -63 M-225.2109375 63 C-225.2109375 25.796250243263195, -225.2109375 -11.40749951347361, -225.2109375 -63" stroke="#9370DB" stroke-width="1.3" fill="none" stroke-dasharray="0 0" style=""/></g><g class="annotation-group text" transform="translate(0, -39)"/><g class="label-group text" transform="translate(-109.890625, -39)"><g class="label" style="font-weight: bolder" transform="translate(0,-12)"><foreignObject width="219.78125" height="24"><div xmlns="http://www.w3.org/1999/xhtml" style="display: table-cell; white-space: nowrap; line-height: 1.5; max-width: 248px; text-align: center;"><span class="nodeLabel markdown-node-label" style=""><p>LoanApprovalStrategyFactory</p></span></div></foreignObject></g></g><g class="members-group text" transform="translate(-213.2109375, 9)"/><g class="methods-group text" transform="translate(-213.2109375, 39)"><g class="label" style="" transform="translate(0,-12)"><foreignObject width="316.53125" height="24"><div xmlns="http://www.w3.org/1999/xhtml" style="display: table-cell; white-space: nowrap; line-height: 1.5; max-width: 347px; text-align: center;"><span class="nodeLabel markdown-node-label" style=""><p>+getStrategy(String) : LoanApprovalStrategy</p></span></div></foreignObject></g></g><g class="divider" style=""><path d="M-225.2109375 -15 C-102.83556014062306 -14.999728309426892, 19.539817218753882 -14.999456618853783, 225.2109375 -14.999 M-225.2109375 -15 C-92.85343482347233 -14.999706147702803, 39.504067853055346 -14.999412295405607, 225.2109375 -14.999" stroke="#9370DB" stroke-width="1.3" fill="none" stroke-dasharray="0 0" style=""/></g><g class="divider" style=""><path d="M-225.2109375 9 C-89.3974925476474 9.000301524975784, 46.415952404705195 9.00060304995157, 225.2109375 9.001 M-225.2109375 9 C-106.52059798155206 9.0002635092701, 12.169741536895884 9.0005270185402, 225.2109375 9.001" stroke="#9370DB" stroke-width="1.3" fill="none" stroke-dasharray="0 0" style=""/></g></g><g class="node default" id="my-svg-classId-LoanApprovalContext-5" data-look="classic" transform="translate(737.0390625, 268)"><g class="basic label-container outer-path"><path d="M-228.6171875 -84 L228.6171875 -84 L228.6171875 84 L-228.6171875 84" stroke="none" stroke-width="0" fill="#ECECFF" style=""/><path d="M-228.6171875 -84 C-137.0753344652971 -84, -45.53348143059418 -84, 228.6171875 -84 M-228.6171875 -84 C-71.34038172715728 -84, 85.93642404568544 -84, 228.6171875 -84 M228.6171875 -84 C228.6171875 -39.757737076514125, 228.6171875 4.484525846971749, 228.6171875 84 M228.6171875 -84 C228.6171875 -45.04503989692467, 228.6171875 -6.090079793849341, 228.6171875 84 M228.6171875 84 C119.18683606589259 84, 9.756484631785185 84, -228.6171875 84 M228.6171875 84 C102.36233816753584 84, -23.892511164928322 84, -228.6171875 84 M-228.6171875 84 C-228.6171875 19.070278487472763, -228.6171875 -45.859443025054475, -228.6171875 -84 M-228.6171875 84 C-228.6171875 24.01874856075056, -228.6171875 -35.96250287849888, -228.6171875 -84" stroke="#9370DB" stroke-width="1.3" fill="none" stroke-dasharray="0 0" style=""/></g><g class="annotation-group text" transform="translate(0, -60)"/><g class="label-group text" transform="translate(-80.609375, -60)"><g class="label" style="font-weight: bolder" transform="translate(0,-12)"><foreignObject width="161.21875" height="24"><div xmlns="http://www.w3.org/1999/xhtml" style="display: table-cell; white-space: nowrap; line-height: 1.5; max-width: 196px; text-align: center;"><span class="nodeLabel markdown-node-label" style=""><p>LoanApprovalContext</p></span></div></foreignObject></g></g><g class="members-group text" transform="translate(-216.6171875, -12)"><g class="label" style="" transform="translate(0,-12)"><foreignObject width="225.65625" height="24"><div xmlns="http://www.w3.org/1999/xhtml" style="display: table-cell; white-space: nowrap; line-height: 1.5; max-width: 263px; text-align: center;"><span class="nodeLabel markdown-node-label" style=""><p>-LoanApprovalStrategy strategy</p></span></div></foreignObject></g></g><g class="methods-group text" transform="translate(-216.6171875, 36)"><g class="label" style="" transform="translate(0,-12)"><foreignObject width="303.28125" height="24"><div xmlns="http://www.w3.org/1999/xhtml" style="display: table-cell; white-space: nowrap; line-height: 1.5; max-width: 335px; text-align: center;"><span class="nodeLabel markdown-node-label" style=""><p>+setStrategy(LoanApprovalStrategy) : void</p></span></div></foreignObject></g><g class="label" style="" transform="translate(0,12)"><foreignObject width="352.625" height="24"><div xmlns="http://www.w3.org/1999/xhtml" style="display: table-cell; white-space: nowrap; line-height: 1.5; max-width: 386px; text-align: center;"><span class="nodeLabel markdown-node-label" style=""><p>+approveLoan(BigDecimal, BigDecimal) : boolean</p></span></div></foreignObject></g></g><g class="divider" style=""><path d="M-228.6171875 -36 C-126.04325994997645 -35.999775664444414, -23.46933239995289 -35.99955132888882, 228.6171875 -35.999 M-228.6171875 -36 C-131.05444835437453 -35.99978662422495, -33.49170920874903 -35.9995732484499, 228.6171875 -35.999" stroke="#9370DB" stroke-width="1.3" fill="none" stroke-dasharray="0 0" style=""/></g><g class="divider" style=""><path d="M-228.6171875 12 C-102.4401049480668 12.00027595712276, 23.736977603866393 12.00055191424552, 228.6171875 12.001 M-228.6171875 12 C-111.53398551509932 12.000256068240681, 5.549216469801365 12.00051213648136, 228.6171875 12.001" stroke="#9370DB" stroke-width="1.3" fill="none" stroke-dasharray="0 0" style=""/></g></g><g class="node default" id="my-svg-classId-AbstractLoanApplicationProcessor-6" data-look="classic" transform="translate(485.96875, 71)"><g class="basic label-container outer-path"><path d="M-345.58203125 -63 L345.58203125 -63 L345.58203125 63 L-345.58203125 63" stroke="none" stroke-width="0" fill="#ECECFF" style=""/><path d="M-345.58203125 -63 C-91.74302746927447 -63, 162.09597631145107 -63, 345.58203125 -63 M-345.58203125 -63 C-194.81704653221425 -63, -44.0520618144285 -63, 345.58203125 -63 M345.58203125 -63 C345.58203125 -13.742328500207122, 345.58203125 35.515342999585755, 345.58203125 63 M345.58203125 -63 C345.58203125 -27.098176452245276, 345.58203125 8.803647095509447, 345.58203125 63 M345.58203125 63 C99.16984896917006 63, -147.24233331165988 63, -345.58203125 63 M345.58203125 63 C151.0850763086916 63, -43.41187863261678 63, -345.58203125 63 M-345.58203125 63 C-345.58203125 35.241910584206586, -345.58203125 7.483821168413172, -345.58203125 -63 M-345.58203125 63 C-345.58203125 22.8125318860844, -345.58203125 -17.3749362278312, -345.58203125 -63" stroke="#9370DB" stroke-width="1.3" fill="none" stroke-dasharray="0 0" style=""/></g><g class="annotation-group text" transform="translate(0, -39)"/><g class="label-group text" transform="translate(-127.4296875, -39)"><g class="label" style="font-weight: bolder" transform="translate(0,-12)"><foreignObject width="254.859375" height="24"><div xmlns="http://www.w3.org/1999/xhtml" style="display: table-cell; white-space: nowrap; line-height: 1.5; max-width: 277px; text-align: center;"><span class="nodeLabel markdown-node-label" style=""><p>AbstractLoanApplicationProcessor</p></span></div></foreignObject></g></g><g class="members-group text" transform="translate(-333.58203125, 9)"/><g class="methods-group text" transform="translate(-333.58203125, 39)"><g class="label" style="" transform="translate(0,-12)"><foreignObject width="539.734375" height="24"><div xmlns="http://www.w3.org/1999/xhtml" style="display: table-cell; white-space: nowrap; line-height: 1.5; max-width: 549px; text-align: center;"><span class="nodeLabel markdown-node-label" style=""><p>+applyForLoanWithResult(int, double, String, int, String) : ProcessingResult</p></span></div></foreignObject></g></g><g class="divider" style=""><path d="M-345.58203125 -15 C-82.89838778580275 -14.99961994024615, 179.7852556783945 -14.999239880492299, 345.58203125 -14.999 M-345.58203125 -15 C-94.67674471207113 -14.999636981579119, 156.22854182585775 -14.99927396315824, 345.58203125 -14.999" stroke="#9370DB" stroke-width="1.3" fill="none" stroke-dasharray="0 0" style=""/></g><g class="divider" style=""><path d="M-345.58203125 9 C-136.27311571532326 9.000302835356887, 73.03579981935349 9.000605670713774, 345.58203125 9.001 M-345.58203125 9 C-120.10304943958704 9.00032623076639, 105.37593237082592 9.000652461532779, 345.58203125 9.001" stroke="#9370DB" stroke-width="1.3" fill="none" stroke-dasharray="0 0" style=""/></g></g></g></g></g><defs><filter id="my-svg-drop-shadow" height="130%" width="130%"><feDropShadow dx="4" dy="4" stdDeviation="0" flood-opacity="0.06" flood-color="#000000"/></filter></defs><defs><filter id="my-svg-drop-shadow-small" height="150%" width="150%"><feDropShadow dx="2" dy="2" stdDeviation="0" flood-opacity="0.06" flood-color="#000000"/></filter></defs></svg>