<svg id="my-svg" width="100%" xmlns="http://www.w3.org/2000/svg" xmlns:xlink="http://www.w3.org/1999/xlink" class="classDiagram" style="max-width: 1145.2px; background-color: white;" viewBox="0 0 1145.1953125 614" role="graphics-document document" aria-roledescription="class"><style>#my-svg{font-family:"trebuchet ms",verdana,arial,sans-serif;font-size:16px;fill:#333;}@keyframes edge-animation-frame{from{stroke-dashoffset:0;}}@keyframes dash{to{stroke-dashoffset:0;}}#my-svg .edge-animation-slow{stroke-dasharray:9,5!important;stroke-dashoffset:900;animation:dash 50s linear infinite;stroke-linecap:round;}#my-svg .edge-animation-fast{stroke-dasharray:9,5!important;stroke-dashoffset:900;animation:dash 20s linear infinite;stroke-linecap:round;}#my-svg .error-icon{fill:#552222;}#my-svg .error-text{fill:#552222;stroke:#552222;}#my-svg .edge-thickness-normal{stroke-width:1px;}#my-svg .edge-thickness-thick{stroke-width:3.5px;}#my-svg .edge-pattern-solid{stroke-dasharray:0;}#my-svg .edge-thickness-invisible{stroke-width:0;fill:none;}#my-svg .edge-pattern-dashed{stroke-dasharray:3;}#my-svg .edge-pattern-dotted{stroke-dasharray:2;}#my-svg .marker{fill:#333333;stroke:#333333;}#my-svg .marker.cross{stroke:#333333;}#my-svg svg{font-family:"trebuchet ms",verdana,arial,sans-serif;font-size:16px;}#my-svg p{margin:0;}#my-svg g.classGroup text{fill:#9370DB;stroke:none;font-family:"trebuchet ms",verdana,arial,sans-serif;font-size:10px;}#my-svg g.classGroup text .title{font-weight:bolder;}#my-svg .cluster-label text{fill:#333;}#my-svg .cluster-label span{color:#333;}#my-svg .cluster-label span p{background-color:transparent;}#my-svg .cluster rect{fill:#ffffde;stroke:#aaaa33;stroke-width:1px;}#my-svg .cluster text{fill:#333;}#my-svg .cluster span{color:#333;}#my-svg .nodeLabel,#my-svg .edgeLabel{color:#131300;}#my-svg .noteLabel .nodeLabel,#my-svg .noteLabel .edgeLabel{color:black;}#my-svg .edgeLabel .label rect{fill:#ECECFF;}#my-svg .label text{fill:#131300;}#my-svg .labelBkg{background:#ECECFF;}#my-svg .edgeLabel .label span{background:#ECECFF;}#my-svg .classTitle{font-weight:bolder;}#my-svg .node rect,#my-svg .node circle,#my-svg .node ellipse,#my-svg .node polygon,#my-svg .node path{fill:#ECECFF;stroke:#9370DB;stroke-width:1;}#my-svg .divider{stroke:#9370DB;stroke-width:1;}#my-svg g.clickable{cursor:pointer;}#my-svg g.classGroup rect{fill:#ECECFF;stroke:#9370DB;}#my-svg g.classGroup line{stroke:#9370DB;stroke-width:1;}#my-svg .classLabel .box{stroke:none;stroke-width:0;fill:#ECECFF;opacity:0.5;}#my-svg .classLabel .label{fill:#9370DB;font-size:10px;}#my-svg .relation{stroke:#333333;stroke-width:1;fill:none;}#my-svg .dashed-line{stroke-dasharray:3;}#my-svg .dotted-line{stroke-dasharray:1 2;}#my-svg [id$="-compositionStart"],#my-svg .composition{fill:#333333!important;stroke:#333333!important;stroke-width:1;}#my-svg [id$="-compositionEnd"],#my-svg .composition{fill:#333333!important;stroke:#333333!important;stroke-width:1;}#my-svg [id$="-dependencyStart"],#my-svg .dependency{fill:#333333!important;stroke:#333333!important;stroke-width:1;}#my-svg [id$="-dependencyEnd"],#my-svg .dependency{fill:#333333!important;stroke:#333333!important;stroke-width:1;}#my-svg [id$="-extensionStart"],#my-svg .extension{fill:transparent!important;stroke:#333333!important;stroke-width:1;}#my-svg [id$="-extensionEnd"],#my-svg .extension{fill:transparent!important;stroke:#333333!important;stroke-width:1;}#my-svg [id$="-aggregationStart"],#my-svg .aggregation{fill:transparent!important;stroke:#333333!important;stroke-width:1;}#my-svg [id$="-aggregationEnd"],#my-svg .aggregation{fill:transparent!important;stroke:#333333!important;stroke-width:1;}#my-svg [id$="-lollipopStart"],#my-svg .lollipop{fill:#ECECFF!important;stroke:#333333!important;stroke-width:1;}#my-svg [id$="-lollipopEnd"],#my-svg .lollipop{fill:#ECECFF!important;stroke:#333333!important;stroke-width:1;}#my-svg .edgeTerminals{font-size:11px;line-height:initial;}#my-svg .classTitleText{text-anchor:middle;font-size:18px;fill:#333;}#my-svg .edgeLabel[data-look="neo"]{background-color:rgba(232,232,232, 0.8);text-align:center;}#my-svg .edgeLabel[data-look="neo"] p{background-color:rgba(232,232,232, 0.8);}#my-svg .edgeLabel[data-look="neo"] rect{opacity:0.5;background-color:rgba(232,232,232, 0.8);fill:rgba(232,232,232, 0.8);}#my-svg .label-icon{display:inline-block;height:1em;overflow:visible;vertical-align:-0.125em;}#my-svg .node .label-icon path{fill:currentColor;stroke:revert;stroke-width:revert;}#my-svg .node .neo-node{stroke:#9370DB;}#my-svg [data-look="neo"].node rect,#my-svg [data-look="neo"].cluster rect,#my-svg [data-look="neo"].node polygon{stroke:#9370DB;filter:drop-shadow(1px 2px 2px rgba(185, 185, 185, 1));}#my-svg [data-look="neo"].node path{stroke:#9370DB;stroke-width:1px;}#my-svg [data-look="neo"].node .outer-path{filter:drop-shadow(1px 2px 2px rgba(185, 185, 185, 1));}#my-svg [data-look="neo"].node .neo-line path{stroke:#9370DB;filter:none;}#my-svg [data-look="neo"].node circle{stroke:#9370DB;filter:drop-shadow(1px 2px 2px rgba(185, 185, 185, 1));}#my-svg [data-look="neo"].node circle .state-start{fill:#000000;}#my-svg [data-look="neo"].icon-shape .icon{fill:#9370DB;filter:drop-shadow(1px 2px 2px rgba(185, 185, 185, 1));}#my-svg [data-look="neo"].icon-shape .icon-neo path{stroke:#9370DB;filter:drop-shadow(1px 2px 2px rgba(185, 185, 185, 1));}#my-svg :root{--mermaid-font-family:"trebuchet ms",verdana,arial,sans-serif;}</style><g><defs><marker id="my-svg_class-aggregationStart" class="marker aggregation class" refX="18" refY="7" markerWidth="190" markerHeight="240" orient="auto"><path d="M 18,7 L9,13 L1,7 L9,1 Z"/></marker></defs><defs><marker id="my-svg_class-aggregationEnd" class="marker aggregation class" refX="1" refY="7" markerWidth="20" markerHeight="28" orient="auto"><path d="M 18,7 L9,13 L1,7 L9,1 Z"/></marker></defs><defs><marker id="my-svg_class-aggregationStart-margin" class="marker aggregation class" refX="15" refY="7" markerWidth="190" markerHeight="240" orient="auto" markerUnits="userSpaceOnUse"><path d="M 18,7 L9,13 L1,7 L9,1 Z" style="stroke-width: 2;"/></marker></defs><defs><marker id="my-svg_class-aggregationEnd-margin" class="marker aggregation class" refX="1" refY="7" markerWidth="20" markerHeight="28" orient="auto" markerUnits="userSpaceOnUse"><path d="M 18,7 L9,13 L1,7 L9,1 Z" style="stroke-width: 2;"/></marker></defs><defs><marker id="my-svg_class-extensionStart" class="marker extension class" refX="18" refY="7" markerWidth="190" markerHeight="240" orient="auto" markerUnits="userSpaceOnUse"><path d="M 1,7 L18,13 V 1 Z"/></marker></defs><defs><marker id="my-svg_class-extensionEnd" class="marker extension class" refX="1" refY="7" markerWidth="20" markerHeight="28" orient="auto"><path d="M 1,1 V 13 L18,7 Z"/></marker></defs><marker id="my-svg_class-extensionStart-margin" class="marker extension class" refX="18" refY="7" markerWidth="20" markerHeight="28" orient="auto" markerUnits="userSpaceOnUse" viewBox="0 0 20 14"><polygon points="10,7 18,13 18,1" style="stroke-width: 2; stroke-dasharray: 0;"/></marker><defs><marker id="my-svg_class-extensionEnd-margin" class="marker extension class" refX="9" refY="7" markerWidth="20" markerHeight="28" orient="auto" markerUnits="userSpaceOnUse" viewBox="0 0 20 14"><polygon points="10,1 10,13 18,7" style="stroke-width: 2; stroke-dasharray: 0;"/></marker></defs><defs><marker id="my-svg_class-compositionStart" class="marker composition class" refX="18" refY="7" markerWidth="190" markerHeight="240" orient="auto"><path d="M 18,7 L9,13 L1,7 L9,1 Z"/></marker></defs><defs><marker id="my-svg_class-compositionEnd" class="marker composition class" refX="1" refY="7" markerWidth="20" markerHeight="28" orient="auto"><path d="M 18,7 L9,13 L1,7 L9,1 Z"/></marker></defs><defs><marker id="my-svg_class-compositionStart-margin" class="marker composition class" refX="15" refY="7" markerWidth="190" markerHeight="240" orient="auto" markerUnits="userSpaceOnUse"><path viewBox="0 0 15 15" d="M 18,7 L9,13 L1,7 L9,1 Z" style="stroke-width: 0;"/></marker></defs><defs><marker id="my-svg_class-compositionEnd-margin" class="marker composition class" refX="3.5" refY="7" markerWidth="20" markerHeight="28" orient="auto" markerUnits="userSpaceOnUse"><path d="M 18,7 L9,13 L1,7 L9,1 Z" style="stroke-width: 0;"/></marker></defs><defs><marker id="my-svg_class-dependencyStart" class="marker dependency class" refX="6" refY="7" markerWidth="190" markerHeight="240" orient="auto"><path d="M 5,7 L9,13 L1,7 L9,1 Z"/></marker></defs><defs><marker id="my-svg_class-dependencyEnd" class="marker dependency class" refX="13" refY="7" markerWidth="20" markerHeight="28" orient="auto"><path d="M 18,7 L9,13 L14,7 L9,1 Z"/></marker></defs><defs><marker id="my-svg_class-dependencyStart-margin" class="marker dependency class" refX="4" refY="7" markerWidth="190" markerHeight="240" orient="auto" markerUnits="userSpaceOnUse"><path d="M 5,7 L9,13 L1,7 L9,1 Z" style="stroke-width: 0;"/></marker></defs><defs><marker id="my-svg_class-dependencyEnd-margin" class="marker dependency class" refX="16" refY="7" markerWidth="20" markerHeight="28" orient="auto" markerUnits="userSpaceOnUse"><path d="M 18,7 L9,13 L14,7 L9,1 Z" style="stroke-width: 0;"/></marker></defs><defs><marker id="my-svg_class-lollipopStart" class="marker lollipop class" refX="13" refY="7" markerWidth="190" markerHeight="240" orient="auto"><circle fill="transparent" cx="7" cy="7" r="6"/></marker></defs><defs><marker id="my-svg_class-lollipopEnd" class="marker lollipop class" refX="1" refY="7" markerWidth="190" markerHeight="240" orient="auto"><circle fill="transparent" cx="7" cy="7" r="6"/></marker></defs><defs><marker id="my-svg_class-lollipopStart-margin" class="marker lollipop class" refX="13" refY="7" markerWidth="190" markerHeight="240" orient="auto" markerUnits="userSpaceOnUse"><circle fill="transparent" cx="7" cy="7" r="6" stroke-width="2"/></marker></defs><defs><marker id="my-svg_class-lollipopEnd-margin" class="marker lollipop class" refX="1" refY="7" markerWidth="190" markerHeight="240" orient="auto" markerUnits="userSpaceOnUse"><circle fill="transparent" cx="7" cy="7" r="6" stroke-width="2"/></marker></defs><g class="root"><g class="clusters"/><g class="edgePaths"><path d="M327.323,357.457L301.417,365.714C275.512,373.971,223.701,390.486,197.796,406.909C171.891,423.333,171.891,439.667,171.891,447.833L171.891,456" id="my-svg-id_AbstractLoanInterestCalculatorTemplate_SavingsLoanInterestCalculator_1" class="edge-thickness-normal edge-pattern-solid relation" style=";;;" data-edge="true" data-et="edge" data-id="id_AbstractLoanInterestCalculatorTemplate_SavingsLoanInterestCalculator_1" data-points="W3sieCI6MzQzLjc1NzgxMjUsInkiOjM1Mi4yMTc4NzMyODA0NDk4NX0seyJ4IjoxNzEuODkwNjI1LCJ5Ijo0MDd9LHsieCI6MTcxLjg5MDYyNSwieSI6NDU2fV0=" data-look="classic" marker-start="url(#my-svg_class-extensionStart)"/><path d="M560.914,399.25L560.914,400.542C560.914,401.833,560.914,404.417,560.914,413.875C560.914,423.333,560.914,439.667,560.914,447.833L560.914,456" id="my-svg-id_AbstractLoanInterestCalculatorTemplate_MoneyMarketLoanInterestCalculator_2" class="edge-thickness-normal edge-pattern-solid relation" style=";;;" data-edge="true" data-et="edge" data-id="id_AbstractLoanInterestCalculatorTemplate_MoneyMarketLoanInterestCalculator_2" data-points="W3sieCI6NTYwLjkxNDA2MjUsInkiOjM4Mn0seyJ4Ijo1NjAuOTE0MDYyNSwieSI6NDA3fSx7IngiOjU2MC45MTQwNjI1LCJ5Ijo0NTZ9XQ==" data-look="classic" marker-start="url(#my-svg_class-extensionStart)"/><path d="M778.07,350.2L808.662,359.666C839.254,369.133,900.438,388.067,931.029,400.7C961.621,413.333,961.621,419.667,961.621,422.833L961.621,426" id="my-svg-id_AbstractLoanInterestCalculatorTemplate_InterestCalculator_3" class="edge-thickness-normal edge-pattern-solid relation" style=";;;" data-edge="true" data-et="edge" data-id="id_AbstractLoanInterestCalculatorTemplate_InterestCalculator_3" data-points="W3sieCI6Nzc4LjA3MDMxMjUsInkiOjM1MC4xOTk2NTY4NTY1MzI5fSx7IngiOjk2MS42MjEwOTM3NSwieSI6NDA3fSx7IngiOjk2MS42MjEwOTM3NSwieSI6NDMyfV0=" data-look="classic" marker-end="url(#my-svg_class-dependencyEnd)"/><path d="M560.914,134L560.914,138.167C560.914,142.333,560.914,150.667,560.914,158C560.914,165.333,560.914,171.667,560.914,174.833L560.914,178" id="my-svg-id_MonthlyInterestPostingCoordinator_AbstractLoanInterestCalculatorTemplate_4" class="edge-thickness-normal edge-pattern-solid relation" style=";;;" data-edge="true" data-et="edge" data-id="id_MonthlyInterestPostingCoordinator_AbstractLoanInterestCalculatorTemplate_4" data-points="W3sieCI6NTYwLjkxNDA2MjUsInkiOjEzNH0seyJ4Ijo1NjAuOTE0MDYyNSwieSI6MTU5fSx7IngiOjU2MC45MTQwNjI1LCJ5IjoxODR9XQ==" data-look="classic" marker-end="url(#my-svg_class-dependencyEnd)"/></g><g class="edgeLabels"><g class="edgeLabel"><g class="label" data-id="id_AbstractLoanInterestCalculatorTemplate_SavingsLoanInterestCalculator_1" transform="translate(0, 0)"><foreignObject width="0" height="0"><div xmlns="http://www.w3.org/1999/xhtml" class="labelBkg" style="display: table-cell; white-space: nowrap; line-height: 1.5; max-width: 200px; text-align: center;"><span class="edgeLabel"></span></div></foreignObject></g></g><g class="edgeLabel"><g class="label" data-id="id_AbstractLoanInterestCalculatorTemplate_MoneyMarketLoanInterestCalculator_2" transform="translate(0, 0)"><foreignObject width="0" height="0"><div xmlns="http://www.w3.org/1999/xhtml" class="labelBkg" style="display: table-cell; white-space: nowrap; line-height: 1.5; max-width: 200px; text-align: center;"><span class="edgeLabel"></span></div></foreignObject></g></g><g class="edgeLabel"><g class="label" data-id="id_AbstractLoanInterestCalculatorTemplate_InterestCalculator_3" transform="translate(0, 0)"><foreignObject width="0" height="0"><div xmlns="http://www.w3.org/1999/xhtml" class="labelBkg" style="display: table-cell; white-space: nowrap; line-height: 1.5; max-width: 200px; text-align: center;"><span class="edgeLabel"></span></div></foreignObject></g></g><g class="edgeLabel"><g class="label" data-id="id_MonthlyInterestPostingCoordinator_AbstractLoanInterestCalculatorTemplate_4" transform="translate(0, 0)"><foreignObject width="0" height="0"><div xmlns="http://www.w3.org/1999/xhtml" class="labelBkg" style="display: table-cell; white-space: nowrap; line-height: 1.5; max-width: 200px; text-align: center;"><span class="edgeLabel"></span></div></foreignObject></g></g></g><g class="nodes"><g class="node default" id="my-svg-classId-AbstractLoanInterestCalculatorTemplate-0" data-look="classic" transform="translate(560.9140625, 283)"><g class="basic label-container outer-path"><path d="M-217.15625 -99 L217.15625 -99 L217.15625 99 L-217.15625 99" stroke="none" stroke-width="0" fill="#ECECFF" style=""/><path d="M-217.15625 -99 C-68.79564855904661 -99, 79.56495288190678 -99, 217.15625 -99 M-217.15625 -99 C-95.98230429451104 -99, 25.191641410977923 -99, 217.15625 -99 M217.15625 -99 C217.15625 -21.821537115946, 217.15625 55.356925768108, 217.15625 99 M217.15625 -99 C217.15625 -48.27170380815077, 217.15625 2.4565923836984638, 217.15625 99 M217.15625 99 C109.04219756190568 99, 0.9281451238113618 99, -217.15625 99 M217.15625 99 C89.96480008932068 99, -37.22664982135865 99, -217.15625 99 M-217.15625 99 C-217.15625 22.013174030028893, -217.15625 -54.973651939942215, -217.15625 -99 M-217.15625 99 C-217.15625 45.753585965870904, -217.15625 -7.492828068258191, -217.15625 -99" stroke="#9370DB" stroke-width="1.3" fill="none" stroke-dasharray="0 0" style=""/></g><g class="annotation-group text" transform="translate(-37.90625, -75)"><g class="label" style="" transform="translate(0,-12)"><foreignObject width="75.8125" height="24"><div xmlns="http://www.w3.org/1999/xhtml" style="display: table-cell; white-space: nowrap; line-height: 1.5; max-width: 116px; text-align: center;"><span class="nodeLabel markdown-node-label" style=""><p>«abstract»</p></span></div></foreignObject></g></g><g class="label-group text" transform="translate(-150.921875, -51)"><g class="label" style="font-weight: bolder" transform="translate(0,-12)"><foreignObject width="301.84375" height="24"><div xmlns="http://www.w3.org/1999/xhtml" style="display: table-cell; white-space: nowrap; line-height: 1.5; max-width: 312px; text-align: center;"><span class="nodeLabel markdown-node-label" style=""><p>AbstractLoanInterestCalculatorTemplate</p></span></div></foreignObject></g></g><g class="members-group text" transform="translate(-205.15625, -3)"/><g class="methods-group text" transform="translate(-205.15625, 27)"><g class="label" style="" transform="translate(0,-12)"><foreignObject width="141.65625" height="24"><div xmlns="http://www.w3.org/1999/xhtml" style="display: table-cell; white-space: nowrap; line-height: 1.5; max-width: 180px; text-align: center;"><span class="nodeLabel markdown-node-label" style=""><p>+postInterest() : int</p></span></div></foreignObject></g><g class="label" style="" transform="translate(0,12)"><foreignObject width="191.03125" height="24"><div xmlns="http://www.w3.org/1999/xhtml" style="display: table-cell; white-space: nowrap; line-height: 1.5; max-width: 231px; text-align: center;"><span class="nodeLabel markdown-node-label" style=""><p>#getAccountType() : String</p></span></div></foreignObject></g><g class="label" style="" transform="translate(0,36)"><foreignObject width="259.390625" height="24"><div xmlns="http://www.w3.org/1999/xhtml" style="display: table-cell; white-space: nowrap; line-height: 1.5; max-width: 288px; text-align: center;"><span class="nodeLabel markdown-node-label" style=""><p>#processInterest(Account) : boolean</p></span></div></foreignObject></g></g><g class="divider" style=""><path d="M-217.15625 -27 C-101.66157533475496 -26.999734074716557, 13.833099330490086 -26.999468149433113, 217.15625 -26.999 M-217.15625 -27 C-114.25849525043007 -26.999763078993237, -11.360740500860146 -26.999526157986473, 217.15625 -26.999" stroke="#9370DB" stroke-width="1.3" fill="none" stroke-dasharray="0 0" style=""/></g><g class="divider" style=""><path d="M-217.15625 -3 C-86.94065552912411 -2.99970017995229, 43.27493894175177 -2.999400359904581, 217.15625 -2.999 M-217.15625 -3 C-95.75843668391147 -2.999720482801402, 25.63937663217706 -2.9994409656028043, 217.15625 -2.999" stroke="#9370DB" stroke-width="1.3" fill="none" stroke-dasharray="0 0" style=""/></g></g><g class="node default" id="my-svg-classId-SavingsLoanInterestCalculator-1" data-look="classic" transform="translate(171.890625, 519)"><g class="basic label-container outer-path"><path d="M-163.890625 -63 L163.890625 -63 L163.890625 63 L-163.890625 63" stroke="none" stroke-width="0" fill="#ECECFF" style=""/><path d="M-163.890625 -63 C-82.66023648501364 -63, -1.4298479700272821 -63, 163.890625 -63 M-163.890625 -63 C-91.30224478891697 -63, -18.71386457783393 -63, 163.890625 -63 M163.890625 -63 C163.890625 -17.681734012247894, 163.890625 27.636531975504212, 163.890625 63 M163.890625 -63 C163.890625 -23.170284678549415, 163.890625 16.65943064290117, 163.890625 63 M163.890625 63 C67.98181944728825 63, -27.92698610542351 63, -163.890625 63 M163.890625 63 C69.85967373094465 63, -24.1712775381107 63, -163.890625 63 M-163.890625 63 C-163.890625 29.687087214518037, -163.890625 -3.6258255709639258, -163.890625 -63 M-163.890625 63 C-163.890625 26.8460864130897, -163.890625 -9.307827173820598, -163.890625 -63" stroke="#9370DB" stroke-width="1.3" fill="none" stroke-dasharray="0 0" style=""/></g><g class="annotation-group text" transform="translate(0, -39)"/><g class="label-group text" transform="translate(-112.75, -39)"><g class="label" style="font-weight: bolder" transform="translate(0,-12)"><foreignObject width="225.5" height="24"><div xmlns="http://www.w3.org/1999/xhtml" style="display: table-cell; white-space: nowrap; line-height: 1.5; max-width: 249px; text-align: center;"><span class="nodeLabel markdown-node-label" style=""><p>SavingsLoanInterestCalculator</p></span></div></foreignObject></g></g><g class="members-group text" transform="translate(-151.890625, 9)"/><g class="methods-group text" transform="translate(-151.890625, 39)"><g class="label" style="" transform="translate(0,-12)"><foreignObject width="191.03125" height="24"><div xmlns="http://www.w3.org/1999/xhtml" style="display: table-cell; white-space: nowrap; line-height: 1.5; max-width: 231px; text-align: center;"><span class="nodeLabel markdown-node-label" style=""><p>#getAccountType() : String</p></span></div></foreignObject></g></g><g class="divider" style=""><path d="M-163.890625 -15 C-81.30798466174633 -14.999748055630583, 1.2746556765073365 -14.999496111261164, 163.890625 -14.999 M-163.890625 -15 C-69.11398168445228 -14.999710853981686, 25.662661631095432 -14.999421707963371, 163.890625 -14.999" stroke="#9370DB" stroke-width="1.3" fill="none" stroke-dasharray="0 0" style=""/></g><g class="divider" style=""><path d="M-163.890625 9 C-62.141278354936006 9.000310418447196, 39.60806829012799 9.000620836894392, 163.890625 9.001 M-163.890625 9 C-46.14050975938464 9.000359233834274, 71.60960548123072 9.000718467668548, 163.890625 9.001" stroke="#9370DB" stroke-width="1.3" fill="none" stroke-dasharray="0 0" style=""/></g></g><g class="node default" id="my-svg-classId-MoneyMarketLoanInterestCalculator-2" data-look="classic" transform="translate(560.9140625, 519)"><g class="basic label-container outer-path"><path d="M-175.1328125 -63 L175.1328125 -63 L175.1328125 63 L-175.1328125 63" stroke="none" stroke-width="0" fill="#ECECFF" style=""/><path d="M-175.1328125 -63 C-84.71665474363243 -63, 5.699503012735136 -63, 175.1328125 -63 M-175.1328125 -63 C-67.88254041999373 -63, 39.36773166001254 -63, 175.1328125 -63 M175.1328125 -63 C175.1328125 -25.45969462402917, 175.1328125 12.080610751941663, 175.1328125 63 M175.1328125 -63 C175.1328125 -31.61018725254963, 175.1328125 -0.22037450509925804, 175.1328125 63 M175.1328125 63 C42.19657555958588 63, -90.73966138082824 63, -175.1328125 63 M175.1328125 63 C42.77598243980566 63, -89.58084762038868 63, -175.1328125 63 M-175.1328125 63 C-175.1328125 25.889241584869367, -175.1328125 -11.221516830261265, -175.1328125 -63 M-175.1328125 63 C-175.1328125 21.33847753567109, -175.1328125 -20.323044928657822, -175.1328125 -63" stroke="#9370DB" stroke-width="1.3" fill="none" stroke-dasharray="0 0" style=""/></g><g class="annotation-group text" transform="translate(0, -39)"/><g class="label-group text" transform="translate(-135.234375, -39)"><g class="label" style="font-weight: bolder" transform="translate(0,-12)"><foreignObject width="270.46875" height="24"><div xmlns="http://www.w3.org/1999/xhtml" style="display: table-cell; white-space: nowrap; line-height: 1.5; max-width: 291px; text-align: center;"><span class="nodeLabel markdown-node-label" style=""><p>MoneyMarketLoanInterestCalculator</p></span></div></foreignObject></g></g><g class="members-group text" transform="translate(-163.1328125, 9)"/><g class="methods-group text" transform="translate(-163.1328125, 39)"><g class="label" style="" transform="translate(0,-12)"><foreignObject width="191.03125" height="24"><div xmlns="http://www.w3.org/1999/xhtml" style="display: table-cell; white-space: nowrap; line-height: 1.5; max-width: 231px; text-align: center;"><span class="nodeLabel markdown-node-label" style=""><p>#getAccountType() : String</p></span></div></foreignObject></g></g><g class="divider" style=""><path d="M-175.1328125 -15 C-89.37965330520831 -14.999755176777068, -3.6264941104166155 -14.999510353554136, 175.1328125 -14.999 M-175.1328125 -15 C-72.63869411309481 -14.999707381738112, 29.85542427381037 -14.999414763476222, 175.1328125 -14.999" stroke="#9370DB" stroke-width="1.3" fill="none" stroke-dasharray="0 0" style=""/></g><g class="divider" style=""><path d="M-175.1328125 9 C-86.80201608419709 9.00025218231568, 1.528780331605816 9.000504364631361, 175.1328125 9.001 M-175.1328125 9 C-63.89799206901232 9.00031757275762, 47.336828361975364 9.000635145515242, 175.1328125 9.001" stroke="#9370DB" stroke-width="1.3" fill="none" stroke-dasharray="0 0" style=""/></g></g><g class="node default" id="my-svg-classId-InterestCalculator-3" data-look="classic" transform="translate(961.62109375, 519)"><g class="basic label-container outer-path"><path d="M-175.57421875 -87 L175.57421875 -87 L175.57421875 87 L-175.57421875 87" stroke="none" stroke-width="0" fill="#ECECFF" style=""/><path d="M-175.57421875 -87 C-95.12715093120732 -87, -14.68008311241465 -87, 175.57421875 -87 M-175.57421875 -87 C-102.30661644450466 -87, -29.03901413900931 -87, 175.57421875 -87 M175.57421875 -87 C175.57421875 -52.00240479413995, 175.57421875 -17.004809588279898, 175.57421875 87 M175.57421875 -87 C175.57421875 -26.31440289177128, 175.57421875 34.37119421645744, 175.57421875 87 M175.57421875 87 C82.7621535122136 87, -10.049911725572798 87, -175.57421875 87 M175.57421875 87 C101.96848422338181 87, 28.362749696763615 87, -175.57421875 87 M-175.57421875 87 C-175.57421875 35.689721063482814, -175.57421875 -15.620557873034372, -175.57421875 -87 M-175.57421875 87 C-175.57421875 26.545579644353914, -175.57421875 -33.90884071129217, -175.57421875 -87" stroke="#9370DB" stroke-width="1.3" fill="none" stroke-dasharray="0 0" style=""/></g><g class="annotation-group text" transform="translate(-41.171875, -63)"><g class="label" style="" transform="translate(0,-12)"><foreignObject width="82.34375" height="24"><div xmlns="http://www.w3.org/1999/xhtml" style="display: table-cell; white-space: nowrap; line-height: 1.5; max-width: 122px; text-align: center;"><span class="nodeLabel markdown-node-label" style=""><p>«interface»</p></span></div></foreignObject></g></g><g class="label-group text" transform="translate(-67.4296875, -39)"><g class="label" style="font-weight: bolder" transform="translate(0,-12)"><foreignObject width="134.859375" height="24"><div xmlns="http://www.w3.org/1999/xhtml" style="display: table-cell; white-space: nowrap; line-height: 1.5; max-width: 165px; text-align: center;"><span class="nodeLabel markdown-node-label" style=""><p>InterestCalculator</p></span></div></foreignObject></g></g><g class="members-group text" transform="translate(-163.57421875, 9)"/><g class="methods-group text" transform="translate(-163.57421875, 39)"><g class="label" style="" transform="translate(0,-12)"><foreignObject width="259.71875" height="24"><div xmlns="http://www.w3.org/1999/xhtml" style="display: table-cell; white-space: nowrap; line-height: 1.5; max-width: 300px; text-align: center;"><span class="nodeLabel markdown-node-label" style=""><p>+calculate(BigDecimal) : BigDecimal</p></span></div></foreignObject></g><g class="label" style="" transform="translate(0,12)"><foreignObject width="140.15625" height="24"><div xmlns="http://www.w3.org/1999/xhtml" style="display: table-cell; white-space: nowrap; line-height: 1.5; max-width: 180px; text-align: center;"><span class="nodeLabel markdown-node-label" style=""><p>+getRate() : double</p></span></div></foreignObject></g></g><g class="divider" style=""><path d="M-175.57421875 -15 C-62.00005636307921 -14.999676563668643, 51.57410602384158 -14.999353127337285, 175.57421875 -14.999 M-175.57421875 -15 C-79.95776104171205 -14.999727703593418, 15.658696666575906 -14.999455407186835, 175.57421875 -14.999" stroke="#9370DB" stroke-width="1.3" fill="none" stroke-dasharray="0 0" style=""/></g><g class="divider" style=""><path d="M-175.57421875 9 C-72.81622472726787 9.000292634063117, 29.94176929546427 9.000585268126233, 175.57421875 9.001 M-175.57421875 9 C-100.82374365604669 9.000212874292211, -26.073268562093375 9.000425748584423, 175.57421875 9.001" stroke="#9370DB" stroke-width="1.3" fill="none" stroke-dasharray="0 0" style=""/></g></g><g class="node default" id="my-svg-classId-MonthlyInterestPostingCoordinator-4" data-look="classic" transform="translate(560.9140625, 71)"><g class="basic label-container outer-path"><path d="M-176.11328125 -63 L176.11328125 -63 L176.11328125 63 L-176.11328125 63" stroke="none" stroke-width="0" fill="#ECECFF" style=""/><path d="M-176.11328125 -63 C-61.147706872205816 -63, 53.81786750558837 -63, 176.11328125 -63 M-176.11328125 -63 C-68.85058078877731 -63, 38.412119672445385 -63, 176.11328125 -63 M176.11328125 -63 C176.11328125 -34.803743303093825, 176.11328125 -6.607486606187656, 176.11328125 63 M176.11328125 -63 C176.11328125 -35.60473733541813, 176.11328125 -8.209474670836258, 176.11328125 63 M176.11328125 63 C71.90204111579652 63, -32.30919901840696 63, -176.11328125 63 M176.11328125 63 C92.88362048043992 63, 9.653959710879832 63, -176.11328125 63 M-176.11328125 63 C-176.11328125 34.13555641009361, -176.11328125 5.27111282018722, -176.11328125 -63 M-176.11328125 63 C-176.11328125 26.824936994667752, -176.11328125 -9.350126010664496, -176.11328125 -63" stroke="#9370DB" stroke-width="1.3" fill="none" stroke-dasharray="0 0" style=""/></g><g class="annotation-group text" transform="translate(0, -39)"/><g class="label-group text" transform="translate(-130.1953125, -39)"><g class="label" style="font-weight: bolder" transform="translate(0,-12)"><foreignObject width="260.390625" height="24"><div xmlns="http://www.w3.org/1999/xhtml" style="display: table-cell; white-space: nowrap; line-height: 1.5; max-width: 280px; text-align: center;"><span class="nodeLabel markdown-node-label" style=""><p>MonthlyInterestPostingCoordinator</p></span></div></foreignObject></g></g><g class="members-group text" transform="translate(-164.11328125, 9)"/><g class="methods-group text" transform="translate(-164.11328125, 39)"><g class="label" style="" transform="translate(0,-12)"><foreignObject width="198.03125" height="24"><div xmlns="http://www.w3.org/1999/xhtml" style="display: table-cell; white-space: nowrap; line-height: 1.5; max-width: 235px; text-align: center;"><span class="nodeLabel markdown-node-label" style=""><p>+postMonthlyInterest() : int</p></span></div></foreignObject></g></g><g class="divider" style=""><path d="M-176.11328125 -15 C-35.59416022032207 -14.999601054730137, 104.92496080935587 -14.999202109460274, 176.11328125 -14.999 M-176.11328125 -15 C-65.42014502938126 -14.999685733138822, 45.27299119123748 -14.999371466277642, 176.11328125 -14.999" stroke="#9370DB" stroke-width="1.3" fill="none" stroke-dasharray="0 0" style=""/></g><g class="divider" style=""><path d="M-176.11328125 9 C-35.29569549698704 9.000399792635609, 105.52189025602593 9.000799585271215, 176.11328125 9.001 M-176.11328125 9 C-59.89438741672063 9.000329954938685, 56.324506416558734 9.000659909877372, 176.11328125 9.001" stroke="#9370DB" stroke-width="1.3" fill="none" stroke-dasharray="0 0" style=""/></g></g></g></g></g><defs><filter id="my-svg-drop-shadow" height="130%" width="130%"><feDropShadow dx="4" dy="4" stdDeviation="0" flood-opacity="0.06" flood-color="#000000"/></filter></defs><defs><filter id="my-svg-drop-shadow-small" height="150%" width="150%"><feDropShadow dx="2" dy="2" stdDeviation="0" flood-opacity="0.06" flood-color="#000000"/></filter></defs></svg>