<svg id="my-svg" width="100%" xmlns="http://www.w3.org/2000/svg" xmlns:xlink="http://www.w3.org/1999/xlink" class="classDiagram" style="max-width: 1944.7px; background-color: white;" viewBox="0 0 1944.703125 486" role="graphics-document document" aria-roledescription="class"><style>#my-svg{font-family:"trebuchet ms",verdana,arial,sans-serif;font-size:16px;fill:#333;}@keyframes edge-animation-frame{from{stroke-dashoffset:0;}}@keyframes dash{to{stroke-dashoffset:0;}}#my-svg .edge-animation-slow{stroke-dasharray:9,5!important;stroke-dashoffset:900;animation:dash 50s linear infinite;stroke-linecap:round;}#my-svg .edge-animation-fast{stroke-dasharray:9,5!important;stroke-dashoffset:900;animation:dash 20s linear infinite;stroke-linecap:round;}#my-svg .error-icon{fill:#552222;}#my-svg .error-text{fill:#552222;stroke:#552222;}#my-svg .edge-thickness-normal{stroke-width:1px;}#my-svg .edge-thickness-thick{stroke-width:3.5px;}#my-svg .edge-pattern-solid{stroke-dasharray:0;}#my-svg .edge-thickness-invisible{stroke-width:0;fill:none;}#my-svg .edge-pattern-dashed{stroke-dasharray:3;}#my-svg .edge-pattern-dotted{stroke-dasharray:2;}#my-svg .marker{fill:#333333;stroke:#333333;}#my-svg .marker.cross{stroke:#333333;}#my-svg svg{font-family:"trebuchet ms",verdana,arial,sans-serif;font-size:16px;}#my-svg p{margin:0;}#my-svg g.classGroup text{fill:#9370DB;stroke:none;font-family:"trebuchet ms",verdana,arial,sans-serif;font-size:10px;}#my-svg g.classGroup text .title{font-weight:bolder;}#my-svg .cluster-label text{fill:#333;}#my-svg .cluster-label span{color:#333;}#my-svg .cluster-label span p{background-color:transparent;}#my-svg .cluster rect{fill:#ffffde;stroke:#aaaa33;stroke-width:1px;}#my-svg .cluster text{fill:#333;}#my-svg .cluster span{color:#333;}#my-svg .nodeLabel,#my-svg .edgeLabel{color:#131300;}#my-svg .noteLabel .nodeLabel,#my-svg .noteLabel .edgeLabel{color:black;}#my-svg .edgeLabel .label rect{fill:#ECECFF;}#my-svg .label text{fill:#131300;}#my-svg .labelBkg{background:#ECECFF;}#my-svg .edgeLabel .label span{background:#ECECFF;}#my-svg .classTitle{font-weight:bolder;}#my-svg .node rect,#my-svg .node circle,#my-svg .node ellipse,#my-svg .node polygon,#my-svg .node path{fill:#ECECFF;stroke:#9370DB;stroke-width:1;}#my-svg .divider{stroke:#9370DB;stroke-width:1;}#my-svg g.clickable{cursor:pointer;}#my-svg g.classGroup rect{fill:#ECECFF;stroke:#9370DB;}#my-svg g.classGroup line{stroke:#9370DB;stroke-width:1;}#my-svg .classLabel .box{stroke:none;stroke-width:0;fill:#ECECFF;opacity:0.5;}#my-svg .classLabel .label{fill:#9370DB;font-size:10px;}#my-svg .relation{stroke:#333333;stroke-width:1;fill:none;}#my-svg .dashed-line{stroke-dasharray:3;}#my-svg .dotted-line{stroke-dasharray:1 2;}#my-svg [id$="-compositionStart"],#my-svg .composition{fill:#333333!important;stroke:#333333!important;stroke-width:1;}#my-svg [id$="-compositionEnd"],#my-svg .composition{fill:#333333!important;stroke:#333333!important;stroke-width:1;}#my-svg [id$="-dependencyStart"],#my-svg .dependency{fill:#333333!important;stroke:#333333!important;stroke-width:1;}#my-svg [id$="-dependencyEnd"],#my-svg .dependency{fill:#333333!important;stroke:#333333!important;stroke-width:1;}#my-svg [id$="-extensionStart"],#my-svg .extension{fill:transparent!important;stroke:#333333!important;stroke-width:1;}#my-svg [id$="-extensionEnd"],#my-svg .extension{fill:transparent!important;stroke:#333333!important;stroke-width:1;}#my-svg [id$="-aggregationStart"],#my-svg .aggregation{fill:transparent!important;stroke:#333333!important;stroke-width:1;}#my-svg [id$="-aggregationEnd"],#my-svg .aggregation{fill:transparent!important;stroke:#333333!important;stroke-width:1;}#my-svg [id$="-lollipopStart"],#my-svg .lollipop{fill:#ECECFF!important;stroke:#333333!important;stroke-width:1;}#my-svg [id$="-lollipopEnd"],#my-svg .lollipop{fill:#ECECFF!important;stroke:#333333!important;stroke-width:1;}#my-svg .edgeTerminals{font-size:11px;line-height:initial;}#my-svg .classTitleText{text-anchor:middle;font-size:18px;fill:#333;}#my-svg .edgeLabel[data-look="neo"]{background-color:rgba(232,232,232, 0.8);text-align:center;}#my-svg .edgeLabel[data-look="neo"] p{background-color:rgba(232,232,232, 0.8);}#my-svg .edgeLabel[data-look="neo"] rect{opacity:0.5;background-color:rgba(232,232,232, 0.8);fill:rgba(232,232,232, 0.8);}#my-svg .label-icon{display:inline-block;height:1em;overflow:visible;vertical-align:-0.125em;}#my-svg .node .label-icon path{fill:currentColor;stroke:revert;stroke-width:revert;}#my-svg .node .neo-node{stroke:#9370DB;}#my-svg [data-look="neo"].node rect,#my-svg [data-look="neo"].cluster rect,#my-svg [data-look="neo"].node polygon{stroke:#9370DB;filter:drop-shadow(1px 2px 2px rgba(185, 185, 185, 1));}#my-svg [data-look="neo"].node path{stroke:#9370DB;stroke-width:1px;}#my-svg [data-look="neo"].node .outer-path{filter:drop-shadow(1px 2px 2px rgba(185, 185, 185, 1));}#my-svg [data-look="neo"].node .neo-line path{stroke:#9370DB;filter:none;}#my-svg [data-look="neo"].node circle{stroke:#9370DB;filter:drop-shadow(1px 2px 2px rgba(185, 185, 185, 1));}#my-svg [data-look="neo"].node circle .state-start{fill:#000000;}#my-svg [data-look="neo"].icon-shape .icon{fill:#9370DB;filter:drop-shadow(1px 2px 2px rgba(185, 185, 185, 1));}#my-svg [data-look="neo"].icon-shape .icon-neo path{stroke:#9370DB;filter:drop-shadow(1px 2px 2px rgba(185, 185, 185, 1));}#my-svg :root{--mermaid-font-family:"trebuchet ms",verdana,arial,sans-serif;}</style><g><defs><marker id="my-svg_class-aggregationStart" class="marker aggregation class" refX="18" refY="7" markerWidth="190" markerHeight="240" orient="auto"><path d="M 18,7 L9,13 L1,7 L9,1 Z"/></marker></defs><defs><marker id="my-svg_class-aggregationEnd" class="marker aggregation class" refX="1" refY="7" markerWidth="20" markerHeight="28" orient="auto"><path d="M 18,7 L9,13 L1,7 L9,1 Z"/></marker></defs><defs><marker id="my-svg_class-aggregationStart-margin" class="marker aggregation class" refX="15" refY="7" markerWidth="190" markerHeight="240" orient="auto" markerUnits="userSpaceOnUse"><path d="M 18,7 L9,13 L1,7 L9,1 Z" style="stroke-width: 2;"/></marker></defs><defs><marker id="my-svg_class-aggregationEnd-margin" class="marker aggregation class" refX="1" refY="7" markerWidth="20" markerHeight="28" orient="auto" markerUnits="userSpaceOnUse"><path d="M 18,7 L9,13 L1,7 L9,1 Z" style="stroke-width: 2;"/></marker></defs><defs><marker id="my-svg_class-extensionStart" class="marker extension class" refX="18" refY="7" markerWidth="190" markerHeight="240" orient="auto" markerUnits="userSpaceOnUse"><path d="M 1,7 L18,13 V 1 Z"/></marker></defs><defs><marker id="my-svg_class-extensionEnd" class="marker extension class" refX="1" refY="7" markerWidth="20" markerHeight="28" orient="auto"><path d="M 1,1 V 13 L18,7 Z"/></marker></defs><marker id="my-svg_class-extensionStart-margin" class="marker extension class" refX="18" refY="7" markerWidth="20" markerHeight="28" orient="auto" markerUnits="userSpaceOnUse" viewBox="0 0 20 14"><polygon points="10,7 18,13 18,1" style="stroke-width: 2; stroke-dasharray: 0;"/></marker><defs><marker id="my-svg_class-extensionEnd-margin" class="marker extension class" refX="9" refY="7" markerWidth="20" markerHeight="28" orient="auto" markerUnits="userSpaceOnUse" viewBox="0 0 20 14"><polygon points="10,1 10,13 18,7" style="stroke-width: 2; stroke-dasharray: 0;"/></marker></defs><defs><marker id="my-svg_class-compositionStart" class="marker composition class" refX="18" refY="7" markerWidth="190" markerHeight="240" orient="auto"><path d="M 18,7 L9,13 L1,7 L9,1 Z"/></marker></defs><defs><marker id="my-svg_class-compositionEnd" class="marker composition class" refX="1" refY="7" markerWidth="20" markerHeight="28" orient="auto"><path d="M 18,7 L9,13 L1,7 L9,1 Z"/></marker></defs><defs><marker id="my-svg_class-compositionStart-margin" class="marker composition class" refX="15" refY="7" markerWidth="190" markerHeight="240" orient="auto" markerUnits="userSpaceOnUse"><path viewBox="0 0 15 15" d="M 18,7 L9,13 L1,7 L9,1 Z" style="stroke-width: 0;"/></marker></defs><defs><marker id="my-svg_class-compositionEnd-margin" class="marker composition class" refX="3.5" refY="7" markerWidth="20" markerHeight="28" orient="auto" markerUnits="userSpaceOnUse"><path d="M 18,7 L9,13 L1,7 L9,1 Z" style="stroke-width: 0;"/></marker></defs><defs><marker id="my-svg_class-dependencyStart" class="marker dependency class" refX="6" refY="7" markerWidth="190" markerHeight="240" orient="auto"><path d="M 5,7 L9,13 L1,7 L9,1 Z"/></marker></defs><defs><marker id="my-svg_class-dependencyEnd" class="marker dependency class" refX="13" refY="7" markerWidth="20" markerHeight="28" orient="auto"><path d="M 18,7 L9,13 L14,7 L9,1 Z"/></marker></defs><defs><marker id="my-svg_class-dependencyStart-margin" class="marker dependency class" refX="4" refY="7" markerWidth="190" markerHeight="240" orient="auto" markerUnits="userSpaceOnUse"><path d="M 5,7 L9,13 L1,7 L9,1 Z" style="stroke-width: 0;"/></marker></defs><defs><marker id="my-svg_class-dependencyEnd-margin" class="marker dependency class" refX="16" refY="7" markerWidth="20" markerHeight="28" orient="auto" markerUnits="userSpaceOnUse"><path d="M 18,7 L9,13 L14,7 L9,1 Z" style="stroke-width: 0;"/></marker></defs><defs><marker id="my-svg_class-lollipopStart" class="marker lollipop class" refX="13" refY="7" markerWidth="190" markerHeight="240" orient="auto"><circle fill="transparent" cx="7" cy="7" r="6"/></marker></defs><defs><marker id="my-svg_class-lollipopEnd" class="marker lollipop class" refX="1" refY="7" markerWidth="190" markerHeight="240" orient="auto"><circle fill="transparent" cx="7" cy="7" r="6"/></marker></defs><defs><marker id="my-svg_class-lollipopStart-margin" class="marker lollipop class" refX="13" refY="7" markerWidth="190" markerHeight="240" orient="auto" markerUnits="userSpaceOnUse"><circle fill="transparent" cx="7" cy="7" r="6" stroke-width="2"/></marker></defs><defs><marker id="my-svg_class-lollipopEnd-margin" class="marker lollipop class" refX="1" refY="7" markerWidth="190" markerHeight="240" orient="auto" markerUnits="userSpaceOnUse"><circle fill="transparent" cx="7" cy="7" r="6" stroke-width="2"/></marker></defs><g class="root"><g class="clusters"/><g class="edgePaths"><path d="M596.433,212.086L530.055,227.239C463.678,242.391,330.923,272.695,264.545,294.014C198.168,315.333,198.168,327.667,198.168,333.833L198.168,340" id="my-svg-id_AbstractTransactionTemplate_DepositProcessor_1" class="edge-thickness-normal edge-pattern-solid relation" style=";;;" data-edge="true" data-et="edge" data-id="id_AbstractTransactionTemplate_DepositProcessor_1" data-points="W3sieCI6NjEzLjI1LCJ5IjoyMDguMjQ3MzA2Nzk0MTc5NDV9LHsieCI6MTk4LjE2Nzk2ODc1LCJ5IjozMDN9LHsieCI6MTk4LjE2Nzk2ODc1LCJ5IjozNDB9XQ==" data-look="classic" marker-start="url(#my-svg_class-extensionStart)"/><path d="M674.583,287.329L670.52,289.94C666.458,292.552,658.332,297.776,654.27,306.555C650.207,315.333,650.207,327.667,650.207,333.833L650.207,340" id="my-svg-id_AbstractTransactionTemplate_WithdrawCashController_2" class="edge-thickness-normal edge-pattern-solid relation" style=";;;" data-edge="true" data-et="edge" data-id="id_AbstractTransactionTemplate_WithdrawCashController_2" data-points="W3sieCI6Njg5LjA5MzEzOTY0ODQzNzUsInkiOjI3OH0seyJ4Ijo2NTAuMjA3MDMxMjUsInkiOjMwM30seyJ4Ijo2NTAuMjA3MDMxMjUsInkiOjM0MH1d" data-look="classic" marker-start="url(#my-svg_class-extensionStart)"/><path d="M1123.573,287.329L1127.636,289.94C1131.698,292.552,1139.824,297.776,1143.887,306.555C1147.949,315.333,1147.949,327.667,1147.949,333.833L1147.949,340" id="my-svg-id_AbstractTransactionTemplate_FundsTransferProcessor_3" class="edge-thickness-normal edge-pattern-solid relation" style=";;;" data-edge="true" data-et="edge" data-id="id_AbstractTransactionTemplate_FundsTransferProcessor_3" data-points="W3sieCI6MTEwOS4wNjMxMTAzNTE1NjI1LCJ5IjoyNzh9LHsieCI6MTE0Ny45NDkyMTg3NSwieSI6MzAzfSx7IngiOjExNDcuOTQ5MjE4NzUsInkiOjM0MH1d" data-look="classic" marker-start="url(#my-svg_class-extensionStart)"/><path d="M1184.906,201.17L1268.299,218.142C1351.691,235.114,1518.477,269.057,1601.869,289.195C1685.262,309.333,1685.262,315.667,1685.262,318.833L1685.262,322" id="my-svg-id_AbstractTransactionTemplate_TransactionProcessor_4" class="edge-thickness-normal edge-pattern-solid relation" style=";;;" data-edge="true" data-et="edge" data-id="id_AbstractTransactionTemplate_TransactionProcessor_4" data-points="W3sieCI6MTE4NC45MDYyNSwieSI6MjAxLjE3MDI1NDg0MDY4MTA4fSx7IngiOjE2ODUuMjYxNzE4NzUsInkiOjMwM30seyJ4IjoxNjg1LjI2MTcxODc1LCJ5IjozMjh9XQ==" data-look="classic" marker-end="url(#my-svg_class-dependencyEnd)"/></g><g class="edgeLabels"><g class="edgeLabel"><g class="label" data-id="id_AbstractTransactionTemplate_DepositProcessor_1" transform="translate(0, 0)"><foreignObject width="0" height="0"><div xmlns="http://www.w3.org/1999/xhtml" class="labelBkg" style="display: table-cell; white-space: nowrap; line-height: 1.5; max-width: 200px; text-align: center;"><span class="edgeLabel"></span></div></foreignObject></g></g><g class="edgeLabel"><g class="label" data-id="id_AbstractTransactionTemplate_WithdrawCashController_2" transform="translate(0, 0)"><foreignObject width="0" height="0"><div xmlns="http://www.w3.org/1999/xhtml" class="labelBkg" style="display: table-cell; white-space: nowrap; line-height: 1.5; max-width: 200px; text-align: center;"><span class="edgeLabel"></span></div></foreignObject></g></g><g class="edgeLabel"><g class="label" data-id="id_AbstractTransactionTemplate_FundsTransferProcessor_3" transform="translate(0, 0)"><foreignObject width="0" height="0"><div xmlns="http://www.w3.org/1999/xhtml" class="labelBkg" style="display: table-cell; white-space: nowrap; line-height: 1.5; max-width: 200px; text-align: center;"><span class="edgeLabel"></span></div></foreignObject></g></g><g class="edgeLabel"><g class="label" data-id="id_AbstractTransactionTemplate_TransactionProcessor_4" transform="translate(0, 0)"><foreignObject width="0" height="0"><div xmlns="http://www.w3.org/1999/xhtml" class="labelBkg" style="display: table-cell; white-space: nowrap; line-height: 1.5; max-width: 200px; text-align: center;"><span class="edgeLabel"></span></div></foreignObject></g></g></g><g class="nodes"><g class="node default" id="my-svg-classId-AbstractTransactionTemplate-0" data-look="classic" transform="translate(899.078125, 143)"><g class="basic label-container outer-path"><path d="M-285.828125 -135 L285.828125 -135 L285.828125 135 L-285.828125 135" stroke="none" stroke-width="0" fill="#ECECFF" style=""/><path d="M-285.828125 -135 C-106.43376489507253 -135, 72.96059520985494 -135, 285.828125 -135 M-285.828125 -135 C-99.1687395490845 -135, 87.49064590183099 -135, 285.828125 -135 M285.828125 -135 C285.828125 -51.96356162481918, 285.828125 31.072876750361644, 285.828125 135 M285.828125 -135 C285.828125 -67.08275434790637, 285.828125 0.834491304187253, 285.828125 135 M285.828125 135 C80.50222907433741 135, -124.82366685132519 135, -285.828125 135 M285.828125 135 C104.21518667770835 135, -77.39775164458331 135, -285.828125 135 M-285.828125 135 C-285.828125 74.34601822306982, -285.828125 13.692036446139639, -285.828125 -135 M-285.828125 135 C-285.828125 78.88304496050299, -285.828125 22.766089921005957, -285.828125 -135" stroke="#9370DB" stroke-width="1.3" fill="none" stroke-dasharray="0 0" style=""/></g><g class="annotation-group text" transform="translate(-37.90625, -111)"><g class="label" style="" transform="translate(0,-12)"><foreignObject width="75.8125" height="24"><div xmlns="http://www.w3.org/1999/xhtml" style="display: table-cell; white-space: nowrap; line-height: 1.5; max-width: 116px; text-align: center;"><span class="nodeLabel markdown-node-label" style=""><p>«abstract»</p></span></div></foreignObject></g></g><g class="label-group text" transform="translate(-122.671875, -87)"><g class="label" style="font-weight: bolder" transform="translate(0,-12)"><foreignObject width="245.34375" height="24"><div xmlns="http://www.w3.org/1999/xhtml" style="display: table-cell; white-space: nowrap; line-height: 1.5; max-width: 304px; text-align: center;"><span class="nodeLabel markdown-node-label" style=""><p>AbstractTransactionTemplate&lt;T&gt;</p></span></div></foreignObject></g></g><g class="members-group text" transform="translate(-273.828125, -39)"/><g class="methods-group text" transform="translate(-273.828125, -9)"><g class="label" style="" transform="translate(0,-12)"><foreignObject width="374.359375" height="24"><div xmlns="http://www.w3.org/1999/xhtml" style="display: table-cell; white-space: nowrap; line-height: 1.5; max-width: 394px; text-align: center;"><span class="nodeLabel markdown-node-label" style=""><p>+executeTransaction(TransactionContext, String) : T</p></span></div></foreignObject></g><g class="label" style="" transform="translate(0,12)"><foreignObject width="332.1875" height="24"><div xmlns="http://www.w3.org/1999/xhtml" style="display: table-cell; white-space: nowrap; line-height: 1.5; max-width: 354px; text-align: center;"><span class="nodeLabel markdown-node-label" style=""><p>#validateInputs(TransactionContext) : boolean</p></span></div></foreignObject></g><g class="label" style="" transform="translate(0,36)"><foreignObject width="417.296875" height="24"><div xmlns="http://www.w3.org/1999/xhtml" style="display: table-cell; white-space: nowrap; line-height: 1.5; max-width: 434px; text-align: center;"><span class="nodeLabel markdown-node-label" style=""><p>#validateAccountsAndState(TransactionContext) : boolean</p></span></div></foreignObject></g><g class="label" style="" transform="translate(0,60)"><foreignObject width="424.984375" height="24"><div xmlns="http://www.w3.org/1999/xhtml" style="display: table-cell; white-space: nowrap; line-height: 1.5; max-width: 447px; text-align: center;"><span class="nodeLabel markdown-node-label" style=""><p>#checkSpecificBusinessRules(TransactionContext) : boolean</p></span></div></foreignObject></g><g class="label" style="" transform="translate(0,84)"><foreignObject width="406.203125" height="24"><div xmlns="http://www.w3.org/1999/xhtml" style="display: table-cell; white-space: nowrap; line-height: 1.5; max-width: 422px; text-align: center;"><span class="nodeLabel markdown-node-label" style=""><p>#executeFinancialImpact(TransactionContext, String) : T</p></span></div></foreignObject></g><g class="label" style="" transform="translate(0,108)"><foreignObject width="180.859375" height="24"><div xmlns="http://www.w3.org/1999/xhtml" style="display: table-cell; white-space: nowrap; line-height: 1.5; max-width: 219px; text-align: center;"><span class="nodeLabel markdown-node-label" style=""><p>#getFailureResult(int) : T</p></span></div></foreignObject></g></g><g class="divider" style=""><path d="M-285.828125 -63 C-164.05927277689125 -62.99978698938003, -42.290420553782496 -62.99957397876006, 285.828125 -62.999 M-285.828125 -63 C-111.86622723050016 -62.999695687928245, 62.095670538999684 -62.99939137585649, 285.828125 -62.999" stroke="#9370DB" stroke-width="1.3" fill="none" stroke-dasharray="0 0" style=""/></g><g class="divider" style=""><path d="M-285.828125 -39 C-61.4251725959287 -38.99960745123944, 162.9777798081426 -38.99921490247888, 285.828125 -38.999 M-285.828125 -39 C-169.93883679961965 -38.99979727451908, -54.04954859923927 -38.999594549038164, 285.828125 -38.999" stroke="#9370DB" stroke-width="1.3" fill="none" stroke-dasharray="0 0" style=""/></g></g><g class="node default" id="my-svg-classId-DepositProcessor-1" data-look="classic" transform="translate(198.16796875, 403)"><g class="basic label-container outer-path"><path d="M-190.16796875 -63 L190.16796875 -63 L190.16796875 63 L-190.16796875 63" stroke="none" stroke-width="0" fill="#ECECFF" style=""/><path d="M-190.16796875 -63 C-48.36660487425934 -63, 93.43475900148132 -63, 190.16796875 -63 M-190.16796875 -63 C-82.04119609406287 -63, 26.085576561874262 -63, 190.16796875 -63 M190.16796875 -63 C190.16796875 -23.07533666139642, 190.16796875 16.84932667720716, 190.16796875 63 M190.16796875 -63 C190.16796875 -28.569063333053833, 190.16796875 5.8618733338923334, 190.16796875 63 M190.16796875 63 C94.57382823298506 63, -1.0203122840298704 63, -190.16796875 63 M190.16796875 63 C97.14262807625119 63, 4.11728740250237 63, -190.16796875 63 M-190.16796875 63 C-190.16796875 31.92256159730778, -190.16796875 0.8451231946155602, -190.16796875 -63 M-190.16796875 63 C-190.16796875 34.37964119668194, -190.16796875 5.7592823933638755, -190.16796875 -63" stroke="#9370DB" stroke-width="1.3" fill="none" stroke-dasharray="0 0" style=""/></g><g class="annotation-group text" transform="translate(0, -39)"/><g class="label-group text" transform="translate(-64.1015625, -39)"><g class="label" style="font-weight: bolder" transform="translate(0,-12)"><foreignObject width="128.203125" height="24"><div xmlns="http://www.w3.org/1999/xhtml" style="display: table-cell; white-space: nowrap; line-height: 1.5; max-width: 164px; text-align: center;"><span class="nodeLabel markdown-node-label" style=""><p>DepositProcessor</p></span></div></foreignObject></g></g><g class="members-group text" transform="translate(-178.16796875, 9)"/><g class="methods-group text" transform="translate(-178.16796875, 39)"><g class="label" style="" transform="translate(0,-12)"><foreignObject width="292.234375" height="24"><div xmlns="http://www.w3.org/1999/xhtml" style="display: table-cell; white-space: nowrap; line-height: 1.5; max-width: 319px; text-align: center;"><span class="nodeLabel markdown-node-label" style=""><p>+postDeposit(String, double, String) : int</p></span></div></foreignObject></g></g><g class="divider" style=""><path d="M-190.16796875 -15 C-67.45214518717123 -14.999677348860669, 55.26367837565755 -14.999354697721339, 190.16796875 -14.999 M-190.16796875 -15 C-57.612689140220084 -14.999651478425939, 74.94259046955983 -14.999302956851876, 190.16796875 -14.999" stroke="#9370DB" stroke-width="1.3" fill="none" stroke-dasharray="0 0" style=""/></g><g class="divider" style=""><path d="M-190.16796875 9 C-110.39202048763053 9.000209751276167, -30.616072225261064 9.000419502552331, 190.16796875 9.001 M-190.16796875 9 C-103.69263364872161 9.000227365669597, -17.21729854744322 9.000454731339193, 190.16796875 9.001" stroke="#9370DB" stroke-width="1.3" fill="none" stroke-dasharray="0 0" style=""/></g></g><g class="node default" id="my-svg-classId-WithdrawCashController-2" data-look="classic" transform="translate(650.20703125, 403)"><g class="basic label-container outer-path"><path d="M-211.87109375 -63 L211.87109375 -63 L211.87109375 63 L-211.87109375 63" stroke="none" stroke-width="0" fill="#ECECFF" style=""/><path d="M-211.87109375 -63 C-48.87649297995628 -63, 114.11810779008744 -63, 211.87109375 -63 M-211.87109375 -63 C-43.55690528446476 -63, 124.75728318107048 -63, 211.87109375 -63 M211.87109375 -63 C211.87109375 -16.50327916895357, 211.87109375 29.993441662092863, 211.87109375 63 M211.87109375 -63 C211.87109375 -24.84934166544774, 211.87109375 13.301316669104523, 211.87109375 63 M211.87109375 63 C64.33281092121709 63, -83.20547190756582 63, -211.87109375 63 M211.87109375 63 C45.40079287399965 63, -121.0695080020007 63, -211.87109375 63 M-211.87109375 63 C-211.87109375 36.39450283098482, -211.87109375 9.789005661969632, -211.87109375 -63 M-211.87109375 63 C-211.87109375 16.073953011862642, -211.87109375 -30.852093976274716, -211.87109375 -63" stroke="#9370DB" stroke-width="1.3" fill="none" stroke-dasharray="0 0" style=""/></g><g class="annotation-group text" transform="translate(0, -39)"/><g class="label-group text" transform="translate(-91.0546875, -39)"><g class="label" style="font-weight: bolder" transform="translate(0,-12)"><foreignObject width="182.109375" height="24"><div xmlns="http://www.w3.org/1999/xhtml" style="display: table-cell; white-space: nowrap; line-height: 1.5; max-width: 212px; text-align: center;"><span class="nodeLabel markdown-node-label" style=""><p>WithdrawCashController</p></span></div></foreignObject></g></g><g class="members-group text" transform="translate(-199.87109375, 9)"/><g class="methods-group text" transform="translate(-199.87109375, 39)"><g class="label" style="" transform="translate(0,-12)"><foreignObject width="308.6875" height="24"><div xmlns="http://www.w3.org/1999/xhtml" style="display: table-cell; white-space: nowrap; line-height: 1.5; max-width: 335px; text-align: center;"><span class="nodeLabel markdown-node-label" style=""><p>+withdrawCash(String, double, String) : int</p></span></div></foreignObject></g></g><g class="divider" style=""><path d="M-211.87109375 -15 C-126.57596544944498 -14.999798709850431, -41.28083714888996 -14.999597419700862, 211.87109375 -14.999 M-211.87109375 -15 C-58.99524646755259 -14.999639224387394, 93.88060081489482 -14.999278448774788, 211.87109375 -14.999" stroke="#9370DB" stroke-width="1.3" fill="none" stroke-dasharray="0 0" style=""/></g><g class="divider" style=""><path d="M-211.87109375 9 C-108.86552346903001 9.000243085473478, -5.859953188060018 9.000486170946955, 211.87109375 9.001 M-211.87109375 9 C-122.34330139250426 9.000211278921473, -32.81550903500852 9.000422557842946, 211.87109375 9.001" stroke="#9370DB" stroke-width="1.3" fill="none" stroke-dasharray="0 0" style=""/></g></g><g class="node default" id="my-svg-classId-FundsTransferProcessor-3" data-look="classic" transform="translate(1147.94921875, 403)"><g class="basic label-container outer-path"><path d="M-235.87109375 -63 L235.87109375 -63 L235.87109375 63 L-235.87109375 63" stroke="none" stroke-width="0" fill="#ECECFF" style=""/><path d="M-235.87109375 -63 C-129.55272504154482 -63, -23.234356333089636 -63, 235.87109375 -63 M-235.87109375 -63 C-114.9355560631815 -63, 5.999981623637012 -63, 235.87109375 -63 M235.87109375 -63 C235.87109375 -20.381467795122617, 235.87109375 22.237064409754765, 235.87109375 63 M235.87109375 -63 C235.87109375 -37.77257649540762, 235.87109375 -12.54515299081524, 235.87109375 63 M235.87109375 63 C119.26774358024956 63, 2.664393410499116 63, -235.87109375 63 M235.87109375 63 C92.89476439742737 63, -50.08156495514527 63, -235.87109375 63 M-235.87109375 63 C-235.87109375 19.165018273764524, -235.87109375 -24.669963452470952, -235.87109375 -63 M-235.87109375 63 C-235.87109375 25.063695845357245, -235.87109375 -12.87260830928551, -235.87109375 -63" stroke="#9370DB" stroke-width="1.3" fill="none" stroke-dasharray="0 0" style=""/></g><g class="annotation-group text" transform="translate(0, -39)"/><g class="label-group text" transform="translate(-88.6484375, -39)"><g class="label" style="font-weight: bolder" transform="translate(0,-12)"><foreignObject width="177.296875" height="24"><div xmlns="http://www.w3.org/1999/xhtml" style="display: table-cell; white-space: nowrap; line-height: 1.5; max-width: 207px; text-align: center;"><span class="nodeLabel markdown-node-label" style=""><p>FundsTransferProcessor</p></span></div></foreignObject></g></g><g class="members-group text" transform="translate(-223.87109375, 9)"/><g class="methods-group text" transform="translate(-223.87109375, 39)"><g class="label" style="" transform="translate(0,-12)"><foreignObject width="359.09375" height="24"><div xmlns="http://www.w3.org/1999/xhtml" style="display: table-cell; white-space: nowrap; line-height: 1.5; max-width: 377px; text-align: center;"><span class="nodeLabel markdown-node-label" style=""><p>+transferFunds(int, String, String, double) : String</p></span></div></foreignObject></g></g><g class="divider" style=""><path d="M-235.87109375 -15 C-80.36049881360856 -14.999670348340562, 75.15009612278288 -14.999340696681124, 235.87109375 -14.999 M-235.87109375 -15 C-96.86693162954316 -14.999705338708718, 42.13723049091368 -14.999410677417439, 235.87109375 -14.999" stroke="#9370DB" stroke-width="1.3" fill="none" stroke-dasharray="0 0" style=""/></g><g class="divider" style=""><path d="M-235.87109375 9 C-85.02967699484881 9.000319753926513, 65.81173976030237 9.000639507853027, 235.87109375 9.001 M-235.87109375 9 C-116.51833118934508 9.000253004216548, 2.8344313713098472 9.000506008433094, 235.87109375 9.001" stroke="#9370DB" stroke-width="1.3" fill="none" stroke-dasharray="0 0" style=""/></g></g><g class="node default" id="my-svg-classId-TransactionProcessor-4" data-look="classic" transform="translate(1685.26171875, 403)"><g class="basic label-container outer-path"><path d="M-251.44140625 -75 L251.44140625 -75 L251.44140625 75 L-251.44140625 75" stroke="none" stroke-width="0" fill="#ECECFF" style=""/><path d="M-251.44140625 -75 C-144.48231841317664 -75, -37.52323057635326 -75, 251.44140625 -75 M-251.44140625 -75 C-59.172401292720366 -75, 133.09660366455927 -75, 251.44140625 -75 M251.44140625 -75 C251.44140625 -15.596217849508271, 251.44140625 43.80756430098346, 251.44140625 75 M251.44140625 -75 C251.44140625 -38.325569837968374, 251.44140625 -1.6511396759367472, 251.44140625 75 M251.44140625 75 C84.43060963695834 75, -82.58018697608333 75, -251.44140625 75 M251.44140625 75 C145.5030869064138 75, 39.564767562827626 75, -251.44140625 75 M-251.44140625 75 C-251.44140625 36.13688597862481, -251.44140625 -2.7262280427503782, -251.44140625 -75 M-251.44140625 75 C-251.44140625 27.182563069727664, -251.44140625 -20.634873860544673, -251.44140625 -75" stroke="#9370DB" stroke-width="1.3" fill="none" stroke-dasharray="0 0" style=""/></g><g class="annotation-group text" transform="translate(-41.171875, -51)"><g class="label" style="" transform="translate(0,-12)"><foreignObject width="82.34375" height="24"><div xmlns="http://www.w3.org/1999/xhtml" style="display: table-cell; white-space: nowrap; line-height: 1.5; max-width: 122px; text-align: center;"><span class="nodeLabel markdown-node-label" style=""><p>«interface»</p></span></div></foreignObject></g></g><g class="label-group text" transform="translate(-79.0078125, -27)"><g class="label" style="font-weight: bolder" transform="translate(0,-12)"><foreignObject width="158.015625" height="24"><div xmlns="http://www.w3.org/1999/xhtml" style="display: table-cell; white-space: nowrap; line-height: 1.5; max-width: 188px; text-align: center;"><span class="nodeLabel markdown-node-label" style=""><p>TransactionProcessor</p></span></div></foreignObject></g></g><g class="members-group text" transform="translate(-239.44140625, 21)"/><g class="methods-group text" transform="translate(-239.44140625, 51)"><g class="label" style="" transform="translate(0,-12)"><foreignObject width="399.875" height="24"><div xmlns="http://www.w3.org/1999/xhtml" style="display: table-cell; white-space: nowrap; line-height: 1.5; max-width: 418px; text-align: center;"><span class="nodeLabel markdown-node-label" style=""><p>+process(TransactionContext, TransactionOperation) : T</p></span></div></foreignObject></g></g><g class="divider" style=""><path d="M-251.44140625 -3 C-109.81613026689718 -2.999718373202538, 31.80914571620565 -2.9994367464050757, 251.44140625 -2.999 M-251.44140625 -3 C-139.73186528720177 -2.9997778616843007, -28.02232432440354 -2.999555723368602, 251.44140625 -2.999" stroke="#9370DB" stroke-width="1.3" fill="none" stroke-dasharray="0 0" style=""/></g><g class="divider" style=""><path d="M-251.44140625 21 C-100.39574133274488 21.000300359569195, 50.64992358451025 21.000600719138387, 251.44140625 21.001 M-251.44140625 21 C-144.84900938176955 21.000211962696316, -38.256612513539096 21.00042392539263, 251.44140625 21.001" stroke="#9370DB" stroke-width="1.3" fill="none" stroke-dasharray="0 0" style=""/></g></g></g></g></g><defs><filter id="my-svg-drop-shadow" height="130%" width="130%"><feDropShadow dx="4" dy="4" stdDeviation="0" flood-opacity="0.06" flood-color="#000000"/></filter></defs><defs><filter id="my-svg-drop-shadow-small" height="150%" width="150%"><feDropShadow dx="2" dy="2" stdDeviation="0" flood-opacity="0.06" flood-color="#000000"/></filter></defs></svg>